<svg width="83" height="73" viewBox="0 0 83 73" fill="none" xmlns="http://www.w3.org/2000/svg">
<g style="mix-blend-mode:luminosity" opacity="0.15">
<path d="M60.0974 16.6892C60.0974 16.6892 59.6489 11.7125 59.4909 11.678C59.4709 9.13886 54.7115 5.78115 53.6546 5.04971C47.9254 1.08942 44.3172 1.33263 38.4246 7.1569C33.774 11.7524 35.343 19.8799 35.5082 20.4408C34.2861 21.096 35.4265 22.8111 36.734 22.5534C36.734 22.5534 36.3526 23.646 37.5475 24.1016C38.7424 24.5571 39.1255 24.1578 39.1255 24.1578C39.1255 24.1578 38.3084 25.3557 40.019 25.7296C40.019 25.7296 39.2635 26.1688 40.4312 26.5736C41.5988 26.9783 42.5812 25.2505 42.5812 25.2505C42.5812 25.2505 42.4396 26.5808 43.56 26.8858C44.6804 27.1907 45.9751 25.8657 45.9751 25.8657C45.9751 25.8657 47.1428 27.3395 48.1978 27.1762C49.2528 27.011 49.9138 25.8385 49.9138 25.8385C49.9138 25.8385 49.7885 26.6789 50.8345 26.5318C51.7824 26.3993 51.6934 24.9673 51.668 24.6987C51.6989 24.971 51.8914 26.4302 52.4942 26.2723C53.6746 25.9637 53.3949 25.0054 53.6074 25.2958C53.8198 25.5844 54.8731 25.3176 55.7556 24.7096C56.5601 24.156 56.1606 23.2032 56.1606 23.2032C56.1606 23.2032 56.9541 23.4536 57.4862 22.5498C57.4862 22.5498 57.5406 23.8801 58.5539 23.2739C59.4419 22.7422 58.4341 21.2012 58.4341 21.2012C58.4341 21.2012 59.1731 21.7094 60.0557 21.154C60.7639 20.7094 59.7179 19.9543 59.7179 19.9543C59.7179 19.9543 61.029 20.2484 61.4176 19.6531C61.8062 19.0577 60.0974 16.6874 60.0974 16.6874V16.6892Z" fill="url(#paint0_linear_1326_8052)"/>
<path d="M58.6901 15.6999C58.6901 15.8905 58.6828 16.0629 58.6701 16.2172V16.2245C58.5812 17.3316 58.2325 17.6438 58.1526 18.1483C58.0836 18.5858 57.6841 19.5041 57.0231 18.7164L57.0213 18.7146C57.0213 18.7146 56.718 15.1427 56.8179 14.4694C56.8179 14.4694 56.9559 13.4602 57.4553 13.2334C58.0963 12.9412 58.6956 14.0156 58.6919 15.6981L58.6901 15.6999Z" fill="url(#paint1_linear_1326_8052)"/>
<path style="mix-blend-mode:multiply" opacity="0.6" d="M56.8578 16.4961C56.8578 16.4961 57.5969 14.3617 58.0781 14.153C58.5593 13.9461 58.5702 15.6576 58.5557 16.2293C58.543 16.8029 58.4431 17.155 58.4431 17.155C58.4431 17.155 58.4667 16.478 58.4086 15.9408C58.325 15.1712 58.0345 14.5432 57.8329 14.6394C57.6314 14.7356 57.5006 15.7411 57.4988 15.8518C57.4988 15.9643 57.6858 16.135 57.7694 16.7303C57.8529 17.3256 57.7349 18.0044 57.615 18.0153C57.4952 18.0262 57.4716 17.5379 57.3844 16.9825C57.2972 16.4272 56.9795 16.5887 56.8887 16.9717L56.8578 16.4943V16.4961Z" fill="url(#paint2_linear_1326_8052)"/>
<path style="mix-blend-mode:multiply" opacity="0.6" d="M56.8887 16.9722C56.8887 16.9722 57.0757 16.4023 57.2736 16.6165C57.4734 16.8307 57.4607 17.5149 57.5969 17.5748C57.7331 17.6347 57.8148 17.072 57.7058 16.5856C57.5969 16.0992 57.3771 15.6818 57.1756 15.7979L56.8578 16.4967L56.8887 16.974V16.9722Z" fill="url(#paint3_linear_1326_8052)"/>
<path style="mix-blend-mode:multiply" d="M58.6683 16.2245C58.5793 17.3316 58.2325 17.6438 58.1507 18.1484C58.0817 18.5858 57.6822 19.5041 57.0212 18.7164C57.0576 18.7455 57.4117 19.0159 57.6968 18.8235C57.9982 18.6184 58.04 18.2101 58.1289 17.8834C58.2179 17.5585 58.5375 17.2935 58.6683 16.2227V16.2245Z" fill="url(#paint4_linear_1326_8052)"/>
<path d="M40.4493 26.1705C39.4015 26.401 38.1377 26.2721 37.6219 25.3955C37.6129 25.3973 36.2382 25.7186 35.3085 23.4916C34.5022 21.5586 34.998 20.584 34.998 20.584C34.998 20.584 34.2153 19.9342 34.0954 19.4278C33.8249 18.2862 34.1681 16.3551 34.9816 16.3224C35.797 16.2897 36.3871 16.8978 36.3871 16.8978C36.3871 16.8978 36.9264 15.5819 37.5802 15.6999C38.2339 15.8178 39.8827 18.0575 39.8827 18.0575C39.8827 18.0575 40.8125 17.2662 41.1956 17.7472C41.5788 18.2281 42.0637 19.446 42.0637 19.446C42.0637 19.446 43.1423 20.0104 42.9734 21.3063C42.9734 21.3063 43.4092 22.1884 42.5594 22.918C42.376 23.076 42.1308 23.2266 41.8112 23.3591C41.8112 23.3591 42.3142 24.2212 42.0364 25.1922C41.9166 25.6115 41.2465 25.9944 40.4511 26.1705H40.4493Z" fill="#010101"/>
<path d="M59.44 28.1793L73.4298 30.4625L73.0249 15.2548C74.6011 14.7484 75.9939 15.4998 77.5229 14.8555C78.3309 18.2404 81.2473 33.2794 80.2086 36.5409C78.5779 41.6591 60.3534 36.0998 60.3534 36.0998L59.4382 28.1811L59.44 28.1793Z" fill="url(#paint5_linear_1326_8052)"/>
<path d="M77.5756 14.6945C77.5756 14.6945 78.242 9.72685 77.6482 9.82122C77.0544 9.91379 76.7348 12.2442 76.7348 12.2442C76.7348 12.2442 76.9709 8.40917 76.5133 8.40372C76.0557 8.40009 75.1186 12.1172 75.1186 12.1172C75.1186 12.1172 75.1749 7.6251 74.8045 7.68318C74.434 7.74125 73.6732 12.1154 73.6732 12.1154C73.6732 12.1154 73.1629 8.85202 72.5691 8.94459C71.9753 9.03715 72.6672 13.943 72.6672 13.943C72.6672 13.943 71.071 12.9775 70.6969 13.4911C70.321 14.0066 72.9813 15.945 72.9813 15.945L73.428 31.9059L77.2887 18.6892L77.5756 14.6926V14.6945Z" fill="url(#paint6_linear_1326_8052)"/>
<path d="M65.1602 43.6074L66.5603 61.4433L44.2573 61.9678L48.8861 49.8818L65.1602 43.6074Z" fill="#F78E1E"/>
<path d="M50.8309 22.0774L53.0245 29.0161L58.5594 28.3046L53.2733 37.3578L42.1799 32.6697L46.4782 30.6986L44.379 21.1445L50.8309 22.0774Z" fill="url(#paint7_linear_1326_8052)"/>
<path d="M45.6864 5.30384C45.6864 5.30384 53.7763 4.33464 56.5982 13.5203C59.4219 22.7041 52.9137 26.1035 48.3413 26.0364C43.7688 25.9692 40.0662 21.6115 39.0311 18.9071C37.9942 16.2028 38.4046 6.54166 45.6864 5.30566V5.30384Z" fill="url(#paint8_linear_1326_8052)"/>
<path d="M65.6142 50.7236C65.6142 50.7236 59.3929 54.4915 47.4025 54.31C47.4025 54.31 38.3792 65.5702 38.6988 78.0391C38.9222 86.791 42.7919 107.71 42.7919 107.71C42.7919 107.71 53.8853 116.754 56.66 108.781C59.4347 100.808 62.0932 69.2092 62.0932 69.2092L55.9155 76.7069L63.2735 115.014L57.6605 137.663L75.5182 137.026C75.5182 137.026 81.2964 124.902 82.1263 112.696C83.4137 93.7532 74.8136 68.044 65.6142 50.7236Z" fill="#F78E1E"/>
<path d="M35.116 37.2979L13.336 65.6388C13.336 65.6388 10.258 63.7077 9.55164 64.401C7.71939 66.196 6.26667 72.3161 9.53167 66.2396C9.53167 66.2396 6.42102 75.8934 10.9154 66.5898C10.9154 66.5898 9.04137 75.4506 12.3318 67.7478C12.3318 67.7478 11.3694 75.2292 13.3088 68.5264C13.3088 68.5264 14.4146 70.0474 15.8274 68.7769C17.242 67.5064 40.916 44.7847 41.784 41.9115C42.652 39.0384 35.1142 37.2979 35.1142 37.2979H35.116Z" fill="url(#paint9_linear_1326_8052)"/>
<path opacity="0.2" d="M60.2119 72.1946C64.9114 68.63 68.3435 64.6642 70.8041 61.0869C76.6894 75.3999 80.7752 91.4606 82.6238 106.135C83.0178 121.773 75.5182 137.026 75.5182 137.026L57.6605 137.663L63.4242 114.985L59.1586 93.1595L59.0442 92.4244C59.2603 76.8464 60.2119 72.1982 60.2119 72.1982V72.1946Z" fill="#201829"/>
<path opacity="0.2" d="M47.969 52.2758L48.886 49.88L65.1602 43.6074L65.7268 50.8165C60.9073 51.9781 53.9815 53.1524 47.969 52.2758Z" fill="#201829"/>
<path d="M60.3752 28.29L67.6879 29.0977L67.0759 39.6137L60.3752 28.29Z" fill="#161C40"/>
<path d="M55.0729 28.7369C55.0729 28.7369 57.7695 27.7023 60.0866 28.1561C62.4037 28.6098 66.8835 35.053 68.1492 37.9171C69.4149 40.7811 70.3319 45.3313 70.3319 45.3313C70.3319 45.3313 53.4967 53.8835 46.1876 51.5567L41.3954 43.1206L37.9071 46.9321L30.2367 40.988C30.2367 40.988 34.4532 34.0003 39.3725 32.8242L43.8633 31.5102C43.8633 31.5102 55.1764 34.6392 55.0692 28.7369H55.0729Z" fill="#161C40"/>
<path d="M37.2534 19.2045C37.3405 19.435 37.4295 19.6419 37.5185 19.8234L37.5239 19.8325C38.1631 21.1357 38.8586 21.3571 39.2145 21.9361C39.5232 22.4352 40.5728 23.3699 41.272 22.1176C41.2738 22.1157 41.2756 22.1139 41.2756 22.1139C41.2756 22.1139 40.1497 17.64 39.6867 16.8686C39.6867 16.8686 39.0112 15.707 38.1141 15.6544C36.961 15.5873 36.4889 17.1627 37.2534 19.2045Z" fill="url(#paint10_linear_1326_8052)"/>
<path style="mix-blend-mode:multiply" opacity="0.6" d="M40.533 19.3463C40.533 19.3463 38.392 17.0867 37.5313 17.0522C36.6706 17.0177 37.4242 19.0995 37.7038 19.7892C37.9835 20.4789 38.3012 20.8618 38.3012 20.8618C38.3012 20.8618 37.958 20.0505 37.8109 19.3735C37.5985 18.4007 37.7783 17.5077 38.1414 17.5332C38.5046 17.5586 39.1692 18.7202 39.2201 18.8563C39.2728 18.9924 39.0494 19.2846 39.1838 20.0451C39.3182 20.8056 39.8121 21.5769 40.01 21.5352C40.2061 21.4934 40.0245 20.8909 39.9138 20.1776C39.803 19.4643 40.3805 19.5169 40.7001 19.9398L40.533 19.3463Z" fill="url(#paint11_linear_1326_8052)"/>
<path style="mix-blend-mode:multiply" opacity="0.6" d="M40.7001 19.9402C40.7001 19.9402 40.1462 19.3321 39.9247 19.6824C39.7032 20.0327 40.0318 20.8567 39.8412 20.991C39.6505 21.1253 39.2673 20.4774 39.2219 19.8385C39.1765 19.1978 39.3382 18.5934 39.7122 18.6424L40.5348 19.3467L40.7019 19.9402H40.7001Z" fill="url(#paint12_linear_1326_8052)"/>
<path style="mix-blend-mode:multiply" d="M37.524 19.833C38.1632 21.1362 38.8587 21.3576 39.2147 21.9366C39.5234 22.4357 40.573 23.3704 41.2721 22.1181C41.2267 22.1689 40.7854 22.6589 40.2443 22.5519C39.6723 22.4393 39.4217 21.962 39.1311 21.6062C38.8424 21.2505 38.2141 21.0745 37.524 19.833Z" fill="url(#paint13_linear_1326_8052)"/>
<path d="M35.1922 14.9466C35.5717 15.7543 35.9603 14.6363 35.9603 14.6363C36.4198 15.8941 37.3786 15.8414 37.3786 15.8414C37.3786 15.8414 36.5578 16.4313 36.7721 17.3152C36.9845 18.1991 38.6043 17.7544 38.6043 17.7544C38.6043 17.7544 38.548 19.4387 39.3688 19.4805C40.1914 19.5222 39.9572 18.8398 39.9572 18.8398C40.9813 19.014 40.324 18.0866 40.324 18.0866C40.5855 17.7018 39.5268 16.8796 39.5268 16.8796C40.0062 16.7054 39.6975 15.7489 39.6975 15.7489C39.959 16.1609 40.7071 15.698 40.7071 15.698C40.7071 15.698 41.0776 16.2752 41.6296 16.0737C42.1835 15.8705 41.4462 13.7723 41.4462 13.7723C41.9456 13.4638 40.8942 11.2985 40.8942 11.2985C40.8942 11.2985 41.3572 11.4945 41.5624 11.235C41.764 10.9809 41.2955 10.1878 41.2773 10.1569C41.2918 10.175 41.537 10.4527 42.3687 10.2204C43.2113 9.98447 42.9643 8.61779 42.9516 8.60327C43.7706 8.77025 44.4624 8.04789 44.4624 8.04789C44.4624 8.04789 44.8728 8.73395 45.2069 8.63231C45.5411 8.53067 46.3964 7.14766 46.3964 7.14766C47.1245 7.28378 47.7801 6.90626 47.7801 6.90626C47.7111 6.96616 48.5991 8.25298 49.1511 7.98073C49.6813 7.71937 49.7522 7.46165 49.7576 7.4435C49.7612 7.46891 49.8339 8.02611 50.4495 8.97171C51.0796 9.94091 51.7932 9.35649 51.7932 9.35649C51.7932 9.35649 51.7969 10.5272 52.022 10.9591C52.2472 11.3911 52.6031 11.7196 52.6031 11.7196C52.6031 11.7196 52.8846 12.7414 53.2732 12.52C53.6618 12.3004 53.5819 11.9247 53.5874 11.8085C53.5928 11.6924 53.8434 12.1207 54.4753 12.2459C55.1073 12.3712 54.853 11.618 54.853 11.618C55.169 11.9955 55.6702 11.7795 55.6702 11.7795C55.6702 11.7795 55.7574 13.0246 56.1296 13.3912C56.9777 14.2279 57.2664 12.5019 57.2664 12.5019C57.8584 12.2314 57.4516 11.4655 57.4516 11.4655C57.4516 11.4655 57.6368 11.6325 57.9691 11.2568C58.2996 10.8793 58.1199 9.52528 57.6604 9.03161C57.2337 8.57423 57.1919 9.0425 57.1883 9.11328C57.1883 9.11873 57.1883 9.12236 57.1883 9.12236C57.1883 9.12236 58.1471 8.36188 58.0545 7.87546C57.9619 7.39086 57.3663 6.58138 57.3663 6.58138C57.3663 6.58138 57.8547 6.01329 57.8348 5.45246C57.8148 4.89345 57.4734 3.61389 56.9522 3.67741C56.4474 3.74093 56.4129 4.15112 56.4147 4.19286C56.4147 4.19286 56.1296 3.32712 55.87 3.07484C55.7011 2.91149 55.1218 2.68461 54.9093 2.69369C54.3954 2.71728 54.0795 3.03672 54.0795 3.03672C53.5547 2.77355 53.0117 2.18186 53.0117 2.18186C53.0117 2.18186 53.3713 1.87332 53.0517 1.46132C52.3562 0.561086 50.326 0.181755 49.3145 0.0329263C47.9399 -0.170352 47.2843 0.633685 47.2971 0.64276C45.9369 0.561086 44.9491 0.916823 44.9491 0.916823C44.9491 0.916823 44.9455 0.737139 44.3952 0.6718C43.8686 0.61009 43.5436 0.862373 43.2185 1.35423L43.2131 1.36331C43.2131 1.36331 42.7972 1.06747 42.2343 1.47584C41.5642 1.96044 41.1448 3.33982 41.4825 5.10943C41.2646 5.17477 41.1466 5.22377 40.8851 5.36716C38.0904 4.33988 38.1921 6.45252 38.1921 6.45252C38.1921 6.45252 37.7454 6.38355 36.9845 6.65943C36.2454 6.92623 36.2672 7.06961 36.3308 7.3346C36.3962 7.60685 36.9536 7.6014 36.9536 7.6014C35.3756 8.47259 35.628 8.40544 35.628 8.40544C35.0633 8.88641 35.0869 9.322 35.1341 9.51076C35.1504 9.57429 35.1686 9.61059 35.1686 9.61059C35.1686 9.61059 34.2225 10.3184 34.326 10.8393C34.4295 11.3602 35.076 11.0862 35.076 11.0862C35.0034 11.5272 35.1505 12.0191 35.2848 12.3494C35.3793 12.5799 35.4664 12.7324 35.4664 12.7324C35.4664 12.7324 34.8127 14.1408 35.1922 14.9484V14.9466Z" fill="#010101"/>
<g style="mix-blend-mode:multiply">
<path d="M35.1923 14.9463C35.5718 15.754 35.9605 14.6359 35.9605 14.6359C36.4199 15.8937 37.3787 15.8411 37.3787 15.8411C37.3787 15.8411 36.5579 16.431 36.7722 17.3149C36.9846 18.1988 38.6044 17.7541 38.6044 17.7541C38.6044 17.7541 38.5481 19.4384 39.3689 19.4801C40.1915 19.5219 39.9573 18.8394 39.9573 18.8394C40.9814 19.0137 40.3241 18.0862 40.3241 18.0862C40.5856 17.7015 39.5269 16.8793 39.5269 16.8793C40.0063 16.705 39.6976 15.7485 39.6976 15.7485C39.9591 16.1605 40.7072 15.6977 40.7072 15.6977C40.7072 15.6977 41.0777 16.2749 41.6297 16.0734C42.1836 15.8701 41.4463 13.772 41.4463 13.772C41.9457 13.4635 40.8943 11.2982 40.8943 11.2982C40.8943 11.2982 41.3573 11.4942 41.5625 11.2347C41.7677 10.9751 41.2774 10.1548 41.2774 10.1548C41.2774 10.1548 41.5117 10.4597 42.3688 10.2201C43.2114 9.98415 42.9644 8.61747 42.9517 8.60295C43.7707 8.76993 44.4625 8.04756 44.4625 8.04756C44.4625 8.04756 44.8729 8.73363 45.207 8.63199C45.5412 8.53035 46.3965 7.14733 46.3965 7.14733C47.1246 7.28346 47.7802 6.90594 47.7802 6.90594C47.7112 6.96583 48.5992 8.25266 49.1512 7.98041C49.6814 7.71905 49.7523 7.46132 49.7577 7.44317C49.7613 7.46858 49.834 8.02578 50.4496 8.97139C51.0797 9.94059 51.7933 9.35617 51.7933 9.35617C51.7933 9.35617 51.797 10.5268 52.0222 10.9588C52.2473 11.3908 52.6032 11.7193 52.6032 11.7193C52.6032 11.7193 52.8847 12.7411 53.2733 12.5197C53.6619 12.3001 53.582 11.9244 53.5875 11.8082C53.5929 11.692 53.8435 12.1204 54.4754 12.2456C55.1074 12.3709 54.8531 11.6176 54.8531 11.6176C55.1691 11.9951 55.6703 11.7792 55.6703 11.7792C55.6703 11.7792 55.7575 13.0242 56.1297 13.3909C56.9778 14.2276 57.2665 12.5015 57.2665 12.5015C57.8585 12.2311 57.4517 11.4652 57.4517 11.4652C57.4517 11.4652 57.6369 11.6322 57.9692 11.2565C58.2997 10.8789 58.12 9.52496 57.6605 9.03128C57.2011 8.53761 57.1884 9.12203 57.1884 9.12203C57.1884 9.12203 58.1472 8.36156 58.0546 7.87514C57.962 7.39054 57.3664 6.58106 57.3664 6.58106C57.3664 6.58106 57.8548 6.01297 57.8349 5.45214C57.8149 4.89312 57.4735 3.61356 56.9523 3.67709C56.4475 3.74061 56.413 4.1508 56.4148 4.19254C56.3095 4.87134 52.7576 4.96028 52.7576 4.96028C52.7576 4.96028 53.4494 5.58826 52.2564 5.73891C50.7601 5.92766 49.4417 4.69892 49.4417 4.69892C49.4417 4.69892 48.0344 5.49025 46.9394 5.45577C43.7271 5.35231 41.7768 4.72615 41.3664 4.05097L41.4826 5.10911L40.8852 5.36683C40.8852 5.36683 41.7441 5.62819 41.8676 6.69177C41.9221 7.15641 40.2424 7.7372 39.9954 7.28346C39.9954 7.28346 40.1643 8.29622 39.0657 8.33615C39.0657 8.33615 39.9373 8.56665 39.7067 9.55763C39.4779 10.5486 35.5228 10.8753 35.1669 9.61208C35.1669 9.61208 34.2208 10.3199 34.3243 10.8408C34.4278 11.3617 35.0743 11.0877 35.0743 11.0877C34.9508 11.8354 35.4647 12.7338 35.4647 12.7338C35.4647 12.7338 34.811 14.1423 35.1905 14.9499L35.1923 14.9463Z" fill="#010101"/>
</g>
<g style="mix-blend-mode:multiply">
<path d="M35.1922 14.9464C35.5718 15.7541 35.9604 14.636 35.9604 14.636C36.4198 15.8938 37.3786 15.8412 37.3786 15.8412C37.3786 15.8412 36.5578 16.4311 36.7721 17.315C36.9845 18.1989 38.6043 17.7542 38.6043 17.7542C38.6043 17.7542 38.548 19.4385 39.3688 19.4802C40.1914 19.522 39.9572 18.8395 39.9572 18.8395C40.9814 19.0138 40.324 18.0863 40.324 18.0863C40.5855 17.7015 39.5268 16.8794 39.5268 16.8794C40.0062 16.7051 39.6975 15.7486 39.6975 15.7486C39.959 16.1606 40.7072 15.6978 40.7072 15.6978C40.7072 15.6978 41.0776 16.275 41.6296 16.0735C42.1835 15.8702 41.4462 13.7721 41.4462 13.7721C41.9456 13.4636 40.8942 11.2983 40.8942 11.2983C40.8942 11.2983 41.3573 11.4943 41.5624 11.2348C41.764 10.9807 41.2955 10.1875 41.2773 10.1567C41.2919 10.1748 41.537 10.4525 42.3687 10.2202C43.2113 9.98424 42.9643 8.61756 42.9516 8.60304C43.7706 8.77002 44.4625 8.04766 44.4625 8.04766C44.4625 8.04766 44.8728 8.73372 45.207 8.63208C45.5411 8.53044 46.3964 7.14743 46.3964 7.14743C47.1246 7.28355 47.7801 6.90603 47.7801 6.90603C47.7111 6.96593 48.5991 8.25275 49.1511 7.9805C49.6814 7.71914 49.7522 7.46142 49.7576 7.44327C49.7613 7.46868 49.8339 8.02588 50.4495 8.97148C51.0796 9.94068 51.7933 9.35626 51.7933 9.35626C51.7933 9.35626 51.7969 10.5269 52.0221 10.9589C52.2472 11.3909 52.6032 11.7194 52.6032 11.7194C52.6032 11.7194 52.8846 12.7412 53.2732 12.5198C53.6618 12.3002 53.5819 11.9245 53.5874 11.8083C53.5928 11.6921 53.8434 12.1205 54.4754 12.2457C55.1073 12.3709 54.8531 11.6177 54.8531 11.6177C55.169 11.9952 55.6702 11.7793 55.6702 11.7793C55.6702 11.7793 55.7574 13.0243 56.1297 13.391C56.9777 14.2277 57.2664 12.5016 57.2664 12.5016C57.8584 12.2312 57.4516 11.4653 57.4516 11.4653C57.4516 11.4653 57.6369 11.6322 57.9692 11.2565C58.2997 10.879 58.1199 9.52505 57.6605 9.03138C57.2337 8.574 57.192 9.04227 57.1883 9.11305C57.1883 9.1185 57.1883 9.12213 57.1883 9.12213C57.3463 10.0224 56.4892 9.33266 56.4892 9.33266C56.4892 9.33266 56.4965 9.88805 55.9009 9.72289C55.9354 9.73377 56.373 9.88623 55.9117 10.1004C55.4323 10.3236 54.9057 9.51598 54.9057 9.51598C54.9057 9.51598 54.7296 10.0042 54.1358 10.046C54.1358 10.046 54.7714 10.3091 54.0704 10.5197C53.3695 10.7302 53.5493 9.31451 53.5493 9.31451C53.5493 9.31451 53.1588 9.72833 52.6903 9.29818C52.22 8.86803 52.2636 7.88612 52.2636 7.88612C52.2636 7.88612 52.0911 8.57037 51.3121 8.47055C50.533 8.37072 49.9501 7.00586 49.9501 7.00586C49.9501 7.00586 49.6741 7.33437 49.3218 7.4469C48.9713 7.55761 48.6318 6.43595 48.6318 6.43595C48.6318 6.43595 48.6172 6.85521 47.7783 6.55574C47.7783 6.55574 47.8836 6.83888 47.308 6.87518C46.7323 6.91148 45.9824 6.23631 45.9824 6.23631C45.9824 6.23631 46.075 7.34526 45.6337 7.55761C45.1924 7.76996 45.0363 6.20545 45.0363 6.20545C45.0363 6.20545 44.5532 6.99678 44.023 6.7808C43.4928 6.56482 43.3257 6.08203 43.3257 6.08203C43.3257 6.08203 43.5999 6.85703 42.9843 6.96048C42.3941 7.05849 42.0981 6.65557 42.0727 6.62108C42.109 6.68279 42.7864 7.87523 41.9147 8.26545C42.0201 8.22008 42.8372 7.88431 42.681 8.43062C42.514 9.01504 41.5624 8.6103 41.5624 8.6103C41.5624 8.6103 41.9329 9.03138 41.5298 9.37078C41.1593 9.68296 40.9323 9.43793 40.896 9.39437C40.9487 9.46879 41.4426 10.1984 40.6182 10.634C40.6599 10.6159 41.2029 10.3962 41.0776 10.7538C40.9469 11.1259 40.2532 11.2366 40.2532 11.2366C40.2532 11.2366 40.8433 11.6504 40.5819 11.9862C40.4784 12.1187 40.3077 12.1404 40.137 12.1168C40.6454 12.3292 41.301 12.7376 40.9904 13.3656C40.6327 14.0861 39.9499 13.6886 39.6158 13.4309C39.8355 13.6469 40.1261 14.0371 39.8119 14.3729C39.3489 14.8684 38.5499 13.7667 38.5499 13.7667C38.5499 13.7667 38.6134 14.3801 37.8889 14.322C37.8889 14.322 38.7006 14.8665 38.2266 15.1678C37.7509 15.4691 36.3417 15.284 36.6704 14.5707C36.6704 14.5707 36.0911 14.1932 36.4125 13.7195C36.4125 13.7195 35.5009 13.7449 35.4719 12.7321C35.4719 12.7321 34.8182 14.1406 35.1977 14.9482L35.1922 14.9464Z" fill="#010101"/>
</g>
<g style="mix-blend-mode:soft-light" opacity="0.5">
<path d="M47.0229 3.84246C47.0229 3.84246 46.5199 4.1619 47.0592 4.26172C47.5985 4.36154 48.4411 3.90417 48.4411 3.90417C50.0591 3.9804 50.524 3.60107 50.2189 2.98579C50.2189 2.98579 51.1559 1.63363 49.5924 1.70804C49.1965 1.72619 49.4181 2.05107 49.4253 2.05652C48.6046 2.00751 48.7553 2.39229 48.7553 2.39229C48.7553 2.39229 47.6621 1.87683 47.328 1.86957C43.9195 1.78971 45.2433 2.7571 45.2433 2.7571C42.011 4.24902 47.0265 3.84427 47.0265 3.84427L47.0229 3.84246Z" fill="#010101"/>
</g>
<path d="M52.2038 16.9592C51.9677 16.9447 52.5016 14.9718 53.8145 14.3638C55.4016 13.6306 56.1116 15.0517 56.1715 15.3602C56.2333 15.6688 53.3369 17.0228 52.202 16.9574L52.2038 16.9592Z" fill="url(#paint14_linear_1326_8052)"/>
<path d="M54.0898 16.617C54.6952 16.5223 55.1079 15.9462 55.0115 15.3302C54.9151 14.7142 54.3461 14.2916 53.7407 14.3862C53.1353 14.4809 52.7227 15.057 52.8191 15.673C52.9155 16.289 53.4844 16.7116 54.0898 16.617Z" fill="url(#paint15_linear_1326_8052)"/>
<path d="M54.0797 16.5526C54.6495 16.4636 55.0377 15.9209 54.9469 15.3406C54.8561 14.7602 54.3206 14.362 53.7508 14.451C53.1811 14.5401 52.7929 15.0828 52.8837 15.6631C52.9745 16.2434 53.51 16.6417 54.0797 16.5526Z" fill="url(#paint16_linear_1326_8052)"/>
<path style="mix-blend-mode:multiply" d="M54.5771 15.3474C54.6607 15.7194 54.4337 16.0879 54.0687 16.1714C53.7037 16.2549 53.3405 16.0207 53.2552 15.6505C53.1698 15.2802 53.3986 14.91 53.7636 14.8265C54.1286 14.743 54.4918 14.9771 54.5771 15.3474Z" fill="url(#paint17_linear_1326_8052)"/>
<path d="M52.1802 16.5885C52.1802 16.5885 52.3055 13.964 53.7727 13.3977C55.2418 12.8315 56.0372 15.0349 56.0372 15.0349C56.0372 15.0349 55.4089 13.9241 53.9888 14.3288C52.567 14.7336 52.1802 16.5885 52.1802 16.5885Z" fill="url(#paint18_linear_1326_8052)"/>
<path d="M52.1601 16.6973L52.4743 16.9514C52.4743 16.9514 52.1729 17.0512 52.122 16.9713C52.0712 16.8915 52.1601 16.6973 52.1601 16.6973Z" fill="#D86B7C"/>
<path d="M52.6849 16.9333C52.6849 16.9333 53.9179 16.8444 54.9003 16.4033C55.8827 15.9605 56.1315 15.4541 56.1315 15.4541C56.1315 15.4541 54.6534 16.4505 52.6849 16.9333Z" fill="#D86B7C"/>
<path d="M54.6298 15.1127C54.5771 15.1871 54.884 15.1308 55.091 14.9893C55.2744 14.8622 55.3434 14.708 55.318 14.688C55.2926 14.6698 54.835 14.8205 54.6298 15.1127Z" fill="white"/>
<path d="M54.47 15.2111C54.3774 15.2002 54.2866 15.2692 54.2939 15.3164C54.3011 15.3636 54.421 15.3981 54.4646 15.3672C54.51 15.3363 54.5209 15.2166 54.47 15.2111Z" fill="white"/>
<g style="mix-blend-mode:multiply" opacity="0.6">
<path d="M52.1602 16.6979C52.1602 16.6979 52.8012 15.2368 53.9434 14.7322C55.0856 14.2277 55.8174 14.783 55.8174 14.783C55.8174 14.783 55.4506 13.9336 53.9125 14.4073C52.3744 14.8792 52.1602 16.6979 52.1602 16.6979Z" fill="#CC78B1"/>
</g>
<path d="M52.1602 16.6975C52.1602 16.6975 52.5088 14.8843 54.0995 14.3942C55.5196 13.9587 56.1098 15.1783 56.1098 15.1783C56.1098 15.1783 56.0062 14.0167 54.953 13.9786C53.9525 13.9423 52.4434 14.8226 52.1602 16.6975Z" fill="#401432"/>
<path d="M47.3734 17.7131C47.5931 17.6278 46.4818 15.9127 45.0472 15.7348C43.313 15.5207 43.0715 17.0924 43.106 17.4046C43.1423 17.7168 46.3129 18.1233 47.3734 17.7131Z" fill="url(#paint19_linear_1326_8052)"/>
<path d="M45.4712 17.9634C46.0766 17.8686 46.4891 17.2925 46.3926 16.6765C46.2961 16.0605 45.7271 15.638 45.1217 15.7327C44.5163 15.8275 44.1037 16.4036 44.2003 17.0196C44.2968 17.6356 44.8658 18.0581 45.4712 17.9634Z" fill="url(#paint20_linear_1326_8052)"/>
<path d="M45.4591 17.9003C46.0289 17.8112 46.4171 17.2685 46.3263 16.6882C46.2355 16.1079 45.7 15.7096 45.1302 15.7987C44.5605 15.8878 44.1723 16.4304 44.2631 17.0108C44.3539 17.5911 44.8894 17.9894 45.4591 17.9003Z" fill="url(#paint21_linear_1326_8052)"/>
<path style="mix-blend-mode:multiply" d="M44.6203 16.9049C44.653 17.2843 44.9835 17.5656 45.3558 17.5329C45.728 17.5002 46.0041 17.1681 45.9696 16.7888C45.9369 16.4094 45.6064 16.1281 45.2341 16.1608C44.8619 16.1935 44.5858 16.5256 44.6203 16.9049Z" fill="url(#paint22_linear_1326_8052)"/>
<path d="M47.2807 17.3542C47.2807 17.3542 46.36 14.8931 44.7893 14.8024C43.2185 14.7116 43.1332 17.0511 43.1332 17.0511C43.1332 17.0511 43.391 15.8024 44.8674 15.7534C46.3437 15.7062 47.2807 17.3524 47.2807 17.3524V17.3542Z" fill="url(#paint23_linear_1326_8052)"/>
<path d="M47.3335 17.4521L47.1119 17.7897C47.1119 17.7897 47.4297 17.7934 47.4533 17.7008C47.4788 17.6101 47.3335 17.4521 47.3335 17.4521Z" fill="#D86B7C"/>
<path d="M46.9067 17.8372C46.9067 17.8372 45.7046 18.1294 44.635 18.0078C43.5654 17.8862 43.1714 17.4814 43.1714 17.4814C43.1714 17.4814 44.8838 17.9806 46.9049 17.8372H46.9067Z" fill="#D86B7C"/>
<path d="M44.4988 16.6971C44.5714 16.7516 44.2627 16.7933 44.023 16.7207C43.8087 16.6554 43.6961 16.5283 43.7143 16.5029C43.7325 16.4775 44.2137 16.4812 44.4988 16.6971Z" fill="white"/>
<path d="M44.6803 16.7421C44.7657 16.704 44.8728 16.7421 44.8801 16.7893C44.8873 16.8365 44.7838 16.9055 44.733 16.8891C44.6803 16.8728 44.6331 16.7639 44.6803 16.7421Z" fill="white"/>
<g style="mix-blend-mode:multiply" opacity="0.6">
<path d="M47.3334 17.452C47.3334 17.452 46.2765 16.2578 45.0344 16.1253C43.7924 15.9928 43.2657 16.746 43.2657 16.746C43.2657 16.746 43.3547 15.8258 44.9636 15.8058C46.5725 15.7859 47.3316 17.452 47.3316 17.452H47.3334Z" fill="#CC78B1"/>
</g>
<path d="M47.3334 17.4517C47.3334 17.4517 46.4472 15.831 44.7839 15.8509C43.2985 15.8691 43.1096 17.2104 43.1096 17.2104C43.1096 17.2104 42.8536 16.0724 43.8432 15.7148C44.7857 15.3736 46.4908 15.7529 47.3334 17.4517Z" fill="#401432"/>
<path d="M52.3927 19.0708C52.3927 19.0708 52.3727 19.1924 51.9351 19.2759C51.4975 19.3612 51.147 19.8095 50.4006 19.9274C49.6543 20.0436 49.2203 19.7187 48.7772 19.7695C48.3341 19.8222 48.2415 19.7187 48.2415 19.7187C48.1308 19.441 48.1289 19.1561 48.1725 18.9038C48.1725 18.9038 48.1725 18.8965 48.1725 18.8947C48.2524 18.4518 48.4667 18.1161 48.4667 18.1161C49.4346 17.4463 50.5586 17.2703 51.6863 17.6133C51.6863 17.6133 51.8842 17.7767 52.0695 18.0453V18.0489C52.2492 18.3085 52.4181 18.666 52.3891 19.0708H52.3927Z" fill="url(#paint24_linear_1326_8052)"/>
<path d="M51.4357 19.4991C51.4357 19.4991 51.728 19.1561 52.1675 19.216L51.4357 19.4991Z" fill="#812852"/>
<path d="M48.5483 19.7841C48.5483 19.7841 48.9551 19.5894 49.4363 19.8623L48.5483 19.7841Z" fill="#812852"/>
<g style="mix-blend-mode:multiply" opacity="0.6">
<path d="M52.3927 19.0707C52.3927 19.0707 52.3727 19.1923 51.9351 19.2758C51.4975 19.3611 51.147 19.8094 50.4006 19.9273C49.6543 20.0435 49.2203 19.7186 48.7772 19.7694C48.3341 19.8221 48.2415 19.7186 48.2415 19.7186C48.1308 19.4409 48.1289 19.156 48.1725 18.9037C48.1671 18.9763 48.1453 19.4445 48.3378 19.528C48.5466 19.617 49.618 19.3792 50.2971 19.2721C50.9763 19.165 52.1312 18.9872 52.2329 18.7875C52.331 18.5951 52.0931 18.0942 52.0695 18.0488C52.2492 18.3084 52.4181 18.6659 52.3891 19.0707H52.3927Z" fill="#CC78B1"/>
</g>
<path style="mix-blend-mode:multiply" opacity="0.6" d="M51.6863 17.6118C51.6863 17.6118 51.561 18.3977 51.6718 18.9186C51.6718 18.9186 51.4121 18.4358 51.5211 17.5664L51.6863 17.6118Z" fill="url(#paint25_linear_1326_8052)"/>
<path style="mix-blend-mode:multiply" opacity="0.6" d="M48.5049 18.111C48.5049 18.111 48.8644 18.8225 48.9171 19.3506C48.9171 19.3506 49.017 18.8097 48.6483 18.0166L48.5049 18.111Z" fill="url(#paint26_linear_1326_8052)"/>
<g style="mix-blend-mode:multiply" opacity="0.6">
<path d="M48.3378 19.5286C48.3378 19.5286 48.2524 19.6592 48.2397 19.7209C48.227 19.7827 49.3601 20.5595 50.4697 20.3852C51.5792 20.211 52.3873 19.1873 52.3909 19.0712C52.3927 18.955 52.1893 18.8389 52.1893 18.8389C52.1893 18.8389 51.3431 19.1093 50.2972 19.2726C49.2494 19.436 48.3378 19.5286 48.3378 19.5286Z" fill="#CC78B1"/>
</g>
<path d="M51.1434 18.8782C50.9727 18.8129 51.2088 18.5098 51.285 18.5098C51.3613 18.5098 51.4285 18.6695 51.4049 18.7838C51.3813 18.8982 51.216 18.9054 51.1434 18.8782Z" fill="#FBCBBB"/>
<g style="mix-blend-mode:multiply">
<path d="M51.5572 14.3495C51.5572 14.3495 51.8514 13.2043 52.4252 12.3966L52.2981 12.9175C52.2981 12.9175 52.467 12.687 52.743 12.4747C53.0209 12.2623 55.2671 11.667 55.7393 11.6779L55.6339 11.4873C55.6339 11.4873 56.5383 12.0409 57.2901 13.3604C57.2901 13.3604 56.6 12.7923 56.2041 12.7886C55.8083 12.785 52.3762 13.8613 51.5954 14.6018L51.5554 14.3513L51.5572 14.3495Z" fill="#010101"/>
<path d="M47.3117 15.0133C47.3117 15.0133 46.6816 14.0133 45.888 13.418L46.1677 13.8753C46.1677 13.8753 45.937 13.7066 45.6084 13.5886C45.2797 13.4706 42.9571 13.5886 42.5122 13.7447L42.554 13.5323C42.554 13.5323 41.8621 14.3363 41.5498 15.8228C41.5498 15.8228 42.0328 15.0714 42.4087 14.9462C42.7846 14.8209 46.3801 14.7992 47.3516 15.2656L47.3117 15.0152V15.0133Z" fill="#010101"/>
</g>
<path style="mix-blend-mode:multiply" opacity="0.6" d="M48.2541 16.2695C48.2541 16.2695 48.9641 19.6835 48.2632 20.7181C47.5622 21.7544 44.1502 22.0285 42.3361 21.2027C40.522 20.3769 41.3246 15.814 41.3246 15.814C41.3246 15.814 42.1218 14.382 44.6931 14.2168C47.2644 14.0516 48.2541 16.2677 48.2541 16.2677V16.2695Z" fill="url(#paint27_linear_1326_8052)"/>
<path style="mix-blend-mode:multiply" opacity="0.6" d="M51.0397 15.8668C51.0397 15.8668 51.4283 18.9269 52.3253 19.6329C53.2242 20.3371 56.2658 19.6256 57.6132 18.4023C58.9606 17.179 56.9886 13.4365 56.9886 13.4365C56.9886 13.4365 55.8954 12.4147 53.6146 12.9882C51.3338 13.5618 51.0378 15.8686 51.0378 15.8686L51.0397 15.8668Z" fill="url(#paint28_linear_1326_8052)"/>
<path d="M47.9471 16.8992C48.0143 16.8194 48.4901 16.2785 49.4961 16.0571C50.5947 15.8157 51.3919 16.1587 51.4791 16.1968" stroke="url(#paint29_linear_1326_8052)" stroke-miterlimit="10"/>
<path d="M41.1957 17.7469L39.5559 16.667" stroke="url(#paint30_linear_1326_8052)" stroke-miterlimit="10"/>
<g style="mix-blend-mode:multiply" opacity="0.4">
<path d="M48.8843 23.0815C49.4345 23.4427 50.0428 23.8692 50.7528 23.8148C51.4629 23.7603 52.1184 22.9835 52.5397 22.4463C51.5936 23.5389 50.15 23.7567 48.8843 23.0833V23.0815Z" fill="#CC78B1"/>
</g>
<path d="M47.337 21.5173C48.0597 22.6825 49.3509 23.708 50.7854 23.4793C52.269 23.2416 53.1606 21.942 53.4584 20.5645C52.4724 20.9928 51.5408 21.5318 50.6093 22.0654C49.5306 21.8386 48.432 21.6171 47.3352 21.5173H47.337Z" fill="#F26665"/>
<path d="M53.6383 20.3174C53.5293 20.6114 53.3695 20.8873 53.1734 21.1359C52.5596 21.9146 51.5826 22.45 50.662 22.597C49.8757 22.7222 49.0022 22.6242 48.2613 22.283C47.7965 22.0688 47.3843 21.7585 47.0756 21.3465C47.9999 21.5661 49.2401 21.537 50.2098 21.4009C50.2934 21.3882 50.3769 21.3755 50.4568 21.3628C50.7419 21.3211 51.0433 21.263 51.3502 21.1886C52.151 20.9962 52.9863 20.6967 53.6401 20.3192L53.6383 20.3174Z" fill="#731C55"/>
<g style="mix-blend-mode:multiply" opacity="0.4">
<path d="M47.0756 21.3447C47.9999 21.5643 49.2401 21.5353 50.2098 21.3992C49.0803 21.6478 48.0979 21.9872 48.2613 22.2813C47.7965 22.0671 47.3843 21.7567 47.0756 21.3447Z" fill="#CC78B1"/>
</g>
<g style="mix-blend-mode:multiply" opacity="0.6">
<path d="M53.6383 20.3174C53.5293 20.6114 53.3695 20.8873 53.1734 21.1359C53.1298 20.9926 52.309 21.0397 51.3502 21.1868C52.151 20.9944 52.9864 20.6949 53.6401 20.3174H53.6383Z" fill="#CC78B1"/>
</g>
<path d="M49.0222 22.5518C49.4145 22.3377 50.1136 22.1562 50.5748 22.1743C51.116 21.9837 52.1347 22.06 52.1347 22.06C51.6462 22.3377 51.1486 22.55 50.5766 22.6208C50.0882 22.6807 49.5216 22.6281 49.024 22.5518H49.0222Z" fill="#BE2741"/>
<path d="M47.3008 21.3865C48.3159 21.5698 49.429 21.5516 50.455 21.3592C51.4828 21.2286 52.5197 20.9146 53.4458 20.4209C52.3308 20.5225 50.11 20.7621 47.3008 21.3865Z" fill="#D74058"/>
<path d="M47.9036 21.4754C48.6735 21.8929 49.6087 22.0726 50.4785 21.9346C51.3483 21.7967 52.1909 21.352 52.812 20.7295C52.062 21.0598 51.2666 21.2322 50.4495 21.3611C49.6323 21.49 48.7389 21.5553 47.9036 21.4754Z" fill="#FBDBE9"/>
<path d="M53.275 20.1609C53.542 20.2916 53.7853 20.4476 53.9505 20.6927C53.8979 20.493 53.798 20.1845 53.6382 20.0719C53.4766 19.9594 53.384 20.0756 53.275 20.1609Z" fill="#D86B7C"/>
<path d="M47.4242 21.0736C47.2099 21.2787 47.0265 21.5019 46.943 21.7851C46.9321 21.58 46.9321 21.2587 47.0501 21.1026C47.1681 20.9465 47.2934 21.0264 47.4242 21.0736Z" fill="#D86B7C"/>
<g style="mix-blend-mode:soft-light">
<path d="M51.6661 22.4499C51.8114 22.5225 51.9186 22.6368 52.0112 22.7693C52.0584 22.7348 52.1074 22.7021 52.1546 22.6677C52.1383 22.5261 51.9767 22.419 51.8768 22.3428C51.806 22.3791 51.737 22.4154 51.6661 22.4499Z" fill="#FBDBE9"/>
</g>
<g style="mix-blend-mode:soft-light">
<path d="M51.9622 22.3299C52.0947 22.3826 52.1692 22.486 52.2182 22.6167C52.2309 22.5986 52.2436 22.5786 52.2563 22.5604C52.2019 22.4352 52.1165 22.3553 51.9821 22.3281C51.9749 22.3281 51.9694 22.3299 51.9622 22.3318V22.3299Z" fill="#FBDBE9"/>
</g>
<path d="M49.0204 22.5495C50.0555 22.6983 51.1759 22.4315 52.131 22.0576C51.2739 22.7019 50.0246 22.7528 49.0204 22.5495Z" fill="#FBDBE9"/>
<g style="mix-blend-mode:soft-light" opacity="0.5">
<path d="M50.0374 22.3841C50.4623 22.473 51.4284 22.0229 50.5749 22.1754C50.2153 22.2389 49.4763 22.2679 50.0374 22.3841Z" fill="#F7A9B0"/>
</g>
<g style="mix-blend-mode:multiply">
<path d="M38.4212 6.43468C38.4212 6.43468 37.9421 1.70586 34.7557 2.02402C31.5694 2.34218 31.7098 8.39215 31.7098 8.39215L32.22 7.9314C32.22 7.9314 31.5902 4.6799 33.3089 4.05023C35.0278 3.42247 36.6146 4.35493 36.6146 4.35493C36.6146 4.35493 31.9196 3.13408 30.6242 5.95362C29.3269 8.77346 31.2898 13.6651 34.3568 12.6988C37.4235 11.7305 38.4231 6.43439 38.4231 6.43439L38.4212 6.43468Z" fill="#010101"/>
</g>
<path style="mix-blend-mode:multiply" d="M30.2967 8.96665C30.2967 8.96665 33.5371 4.41861 37.7083 6.80965L38.0085 6.64445C38.0085 6.64445 34.024 3.89522 30.2205 7.82655L30.297 8.96856L30.2967 8.96665Z" fill="url(#paint31_linear_1326_8052)"/>
<path d="M30.5057 6.23559C30.5057 6.23559 34.4876 3.19678 38.0328 5.57517L37.645 4.95677C37.645 4.95677 35.9008 3.16778 30.6223 5.9545L30.5057 6.23559Z" fill="#010101"/>
<path style="mix-blend-mode:multiply" d="M32.2269 12.4062C32.2269 12.4062 31.476 7.08985 37.2217 7.10577L37.0378 7.24134C37.0378 7.24134 31.6895 7.55198 32.6872 12.6471L32.2288 12.4059L32.2269 12.4062Z" fill="url(#paint32_linear_1326_8052)"/>
<path d="M38.8468 6.10977C38.8468 6.10977 36.1405 7.68318 35.4696 12.0748C35.4696 12.0748 33.4512 7.88567 38.8468 6.10977Z" fill="#F78E1E"/>
</g>
<defs>
<linearGradient id="paint0_linear_1326_8052" x1="49.2074" y1="26.5888" x2="47.4763" y2="15.5156" gradientUnits="userSpaceOnUse">
<stop stop-color="#31111B"/>
<stop offset="1" stop-color="#1A0F21"/>
</linearGradient>
<linearGradient id="paint1_linear_1326_8052" x1="59.2674" y1="20.4887" x2="58.3173" y2="14.4115" gradientUnits="userSpaceOnUse">
<stop stop-color="#F7A393"/>
<stop offset="0.43" stop-color="#F5A794"/>
<stop offset="0.51" stop-color="#F5A18E"/>
<stop offset="0.76" stop-color="#F59584"/>
<stop offset="1" stop-color="#F69181"/>
</linearGradient>
<linearGradient id="paint2_linear_1326_8052" x1="59.0212" y1="18.9063" x2="58.3672" y2="14.7227" gradientUnits="userSpaceOnUse">
<stop stop-color="#F7A393"/>
<stop offset="0.43" stop-color="#F5A794"/>
<stop offset="0.51" stop-color="#F5A18E"/>
<stop offset="0.76" stop-color="#F59584"/>
<stop offset="1" stop-color="#F69181"/>
</linearGradient>
<linearGradient id="paint3_linear_1326_8052" x1="58.2654" y1="17.4507" x2="57.9814" y2="15.6342" gradientUnits="userSpaceOnUse">
<stop stop-color="#F7A393"/>
<stop offset="0.43" stop-color="#F5A794"/>
<stop offset="0.51" stop-color="#F5A18E"/>
<stop offset="0.76" stop-color="#F59584"/>
<stop offset="1" stop-color="#F69181"/>
</linearGradient>
<linearGradient id="paint4_linear_1326_8052" x1="56.8802" y1="17.8223" x2="58.868" y2="17.5112" gradientUnits="userSpaceOnUse">
<stop stop-color="#F7A393"/>
<stop offset="0.43" stop-color="#F5A794"/>
<stop offset="0.51" stop-color="#F5A18E"/>
<stop offset="0.76" stop-color="#F59584"/>
<stop offset="1" stop-color="#F69181"/>
</linearGradient>
<linearGradient id="paint5_linear_1326_8052" x1="59.2956" y1="29.3446" x2="79.6239" y2="26.1633" gradientUnits="userSpaceOnUse">
<stop stop-color="#F7A393"/>
<stop offset="0.43" stop-color="#F5A794"/>
<stop offset="0.51" stop-color="#F5A18E"/>
<stop offset="0.76" stop-color="#F59584"/>
<stop offset="1" stop-color="#F69181"/>
</linearGradient>
<linearGradient id="paint6_linear_1326_8052" x1="71.5932" y1="20.1938" x2="79.2323" y2="18.9983" gradientUnits="userSpaceOnUse">
<stop stop-color="#F7A393"/>
<stop offset="0.43" stop-color="#F5A794"/>
<stop offset="0.51" stop-color="#F5A18E"/>
<stop offset="0.76" stop-color="#F59584"/>
<stop offset="1" stop-color="#F69181"/>
</linearGradient>
<linearGradient id="paint7_linear_1326_8052" x1="41.814" y1="30.351" x2="58.4699" y2="27.7444" gradientUnits="userSpaceOnUse">
<stop stop-color="#F9AD99"/>
<stop offset="0.18" stop-color="#F79B8D"/>
<stop offset="0.46" stop-color="#F48781"/>
<stop offset="0.73" stop-color="#F37B79"/>
<stop offset="1" stop-color="#F37777"/>
</linearGradient>
<linearGradient id="paint8_linear_1326_8052" x1="38.6317" y1="17.0527" x2="56.879" y2="14.1971" gradientUnits="userSpaceOnUse">
<stop stop-color="#F7A393"/>
<stop offset="0.43" stop-color="#F5A794"/>
<stop offset="0.51" stop-color="#F5A18E"/>
<stop offset="0.76" stop-color="#F59584"/>
<stop offset="1" stop-color="#F69181"/>
</linearGradient>
<linearGradient id="paint9_linear_1326_8052" x1="5.77503" y1="57.1076" x2="43.398" y2="51.2197" gradientUnits="userSpaceOnUse">
<stop stop-color="#F7A393"/>
<stop offset="0.43" stop-color="#F5A794"/>
<stop offset="0.51" stop-color="#F5A18E"/>
<stop offset="0.76" stop-color="#F59584"/>
<stop offset="1" stop-color="#F69181"/>
</linearGradient>
<linearGradient id="paint10_linear_1326_8052" x1="39.8903" y1="25.1002" x2="38.6697" y2="17.2925" gradientUnits="userSpaceOnUse">
<stop stop-color="#F7A393"/>
<stop offset="0.43" stop-color="#F5A794"/>
<stop offset="0.51" stop-color="#F5A18E"/>
<stop offset="0.76" stop-color="#F59584"/>
<stop offset="1" stop-color="#F69181"/>
</linearGradient>
<linearGradient id="paint11_linear_1326_8052" x1="39.5707" y1="23.0691" x2="38.7305" y2="17.6948" gradientUnits="userSpaceOnUse">
<stop stop-color="#F7A393"/>
<stop offset="0.43" stop-color="#F5A794"/>
<stop offset="0.51" stop-color="#F5A18E"/>
<stop offset="0.76" stop-color="#F59584"/>
<stop offset="1" stop-color="#F69181"/>
</linearGradient>
<linearGradient id="paint12_linear_1326_8052" x1="40.1229" y1="20.9605" x2="39.7579" y2="18.6257" gradientUnits="userSpaceOnUse">
<stop stop-color="#F7A393"/>
<stop offset="0.43" stop-color="#F5A794"/>
<stop offset="0.51" stop-color="#F5A18E"/>
<stop offset="0.76" stop-color="#F59584"/>
<stop offset="1" stop-color="#F69181"/>
</linearGradient>
<linearGradient id="paint13_linear_1326_8052" x1="37.781" y1="21.481" x2="41.091" y2="20.963" gradientUnits="userSpaceOnUse">
<stop stop-color="#F7A393"/>
<stop offset="0.43" stop-color="#F5A794"/>
<stop offset="0.51" stop-color="#F5A18E"/>
<stop offset="0.76" stop-color="#F59584"/>
<stop offset="1" stop-color="#F69181"/>
</linearGradient>
<linearGradient id="paint14_linear_1326_8052" x1="54.2406" y1="16.7072" x2="53.8984" y2="14.2461" gradientUnits="userSpaceOnUse">
<stop stop-color="#E8DCED"/>
<stop offset="1" stop-color="#BBC3E3"/>
</linearGradient>
<linearGradient id="paint15_linear_1326_8052" x1="54.1651" y1="16.5945" x2="53.6651" y2="14.3926" gradientUnits="userSpaceOnUse">
<stop stop-color="#48204B"/>
<stop offset="1" stop-color="#301138"/>
</linearGradient>
<linearGradient id="paint16_linear_1326_8052" x1="54.1507" y1="16.531" x2="53.68" y2="14.4583" gradientUnits="userSpaceOnUse">
<stop stop-color="#57345B"/>
<stop offset="1" stop-color="#301138"/>
</linearGradient>
<linearGradient id="paint17_linear_1326_8052" x1="54.068" y1="16.1663" x2="53.7625" y2="14.8212" gradientUnits="userSpaceOnUse">
<stop stop-color="#A295B8"/>
<stop offset="0.99" stop-color="#734B61"/>
</linearGradient>
<linearGradient id="paint18_linear_1326_8052" x1="51.8727" y1="15.2332" x2="55.8745" y2="14.3236" gradientUnits="userSpaceOnUse">
<stop stop-color="#F7A393"/>
<stop offset="0.43" stop-color="#F5A794"/>
<stop offset="0.51" stop-color="#F5A18E"/>
<stop offset="0.76" stop-color="#F59584"/>
<stop offset="1" stop-color="#F69181"/>
</linearGradient>
<linearGradient id="paint19_linear_1326_8052" x1="45.3577" y1="18.0996" x2="44.932" y2="15.6516" gradientUnits="userSpaceOnUse">
<stop stop-color="#E8DCED"/>
<stop offset="1" stop-color="#BBC3E3"/>
</linearGradient>
<linearGradient id="paint20_linear_1326_8052" x1="45.3988" y1="17.974" x2="45.2025" y2="15.7247" gradientUnits="userSpaceOnUse">
<stop stop-color="#48204B"/>
<stop offset="1" stop-color="#301138"/>
</linearGradient>
<linearGradient id="paint21_linear_1326_8052" x1="45.3844" y1="17.9022" x2="45.2" y2="15.7849" gradientUnits="userSpaceOnUse">
<stop stop-color="#57345B"/>
<stop offset="1" stop-color="#301138"/>
</linearGradient>
<linearGradient id="paint22_linear_1326_8052" x1="45.3578" y1="17.5334" x2="45.2378" y2="16.1592" gradientUnits="userSpaceOnUse">
<stop stop-color="#A295B8"/>
<stop offset="0.99" stop-color="#734B61"/>
</linearGradient>
<linearGradient id="paint23_linear_1326_8052" x1="47.163" y1="15.974" x2="43.0728" y2="16.3313" gradientUnits="userSpaceOnUse">
<stop stop-color="#F7A393"/>
<stop offset="0.43" stop-color="#F5A794"/>
<stop offset="0.51" stop-color="#F5A18E"/>
<stop offset="0.76" stop-color="#F59584"/>
<stop offset="1" stop-color="#F69181"/>
</linearGradient>
<linearGradient id="paint24_linear_1326_8052" x1="50.3988" y1="19.9309" x2="50.0169" y2="17.4886" gradientUnits="userSpaceOnUse">
<stop stop-color="#F37A7F"/>
<stop offset="0.47" stop-color="#F4837F"/>
<stop offset="1" stop-color="#F58880"/>
</linearGradient>
<linearGradient id="paint25_linear_1326_8052" x1="51.7465" y1="18.9122" x2="51.5362" y2="17.5673" gradientUnits="userSpaceOnUse">
<stop stop-color="#FCE4D6"/>
<stop offset="0.99" stop-color="#AE7DB7"/>
</linearGradient>
<linearGradient id="paint26_linear_1326_8052" x1="48.8422" y1="19.3678" x2="48.6319" y2="18.0229" gradientUnits="userSpaceOnUse">
<stop stop-color="#FCE4D6"/>
<stop offset="0.99" stop-color="#AE7DB7"/>
</linearGradient>
<linearGradient id="paint27_linear_1326_8052" x1="45.3726" y1="21.7404" x2="44.2049" y2="14.2716" gradientUnits="userSpaceOnUse">
<stop stop-color="#FCE4D6"/>
<stop offset="0.99" stop-color="#AE7DB7"/>
</linearGradient>
<linearGradient id="paint28_linear_1326_8052" x1="55.0998" y1="19.781" x2="54.0336" y2="12.9614" gradientUnits="userSpaceOnUse">
<stop stop-color="#FCE4D6"/>
<stop offset="0.99" stop-color="#AE7DB7"/>
</linearGradient>
<linearGradient id="paint29_linear_1326_8052" x1="49.7287" y1="16.6951" x2="49.6112" y2="15.9437" gradientUnits="userSpaceOnUse">
<stop stop-color="#FCE4D6"/>
<stop offset="0.99" stop-color="#AE7DB7"/>
</linearGradient>
<linearGradient id="paint30_linear_1326_8052" x1="40.4856" y1="17.929" x2="40.2611" y2="16.4926" gradientUnits="userSpaceOnUse">
<stop stop-color="#FCE4D6"/>
<stop offset="0.99" stop-color="#AE7DB7"/>
</linearGradient>
<linearGradient id="paint31_linear_1326_8052" x1="30.0987" y1="7.68162" x2="37.9793" y2="6.46726" gradientUnits="userSpaceOnUse">
<stop stop-color="#827FBC"/>
<stop offset="1" stop-color="white"/>
</linearGradient>
<linearGradient id="paint32_linear_1326_8052" x1="31.9019" y1="10.2967" x2="37.5786" y2="9.422" gradientUnits="userSpaceOnUse">
<stop stop-color="#827FBC"/>
<stop offset="1" stop-color="white"/>
</linearGradient>
</defs>
</svg>
