<svg width="35" height="86" viewBox="0 0 35 86" fill="none" xmlns="http://www.w3.org/2000/svg">
<g style="mix-blend-mode:luminosity" opacity="0.15">
<path d="M20.9852 13.1056L21.3042 18.0514L24.896 18.3893L20.1096 23.6088L13.8309 19.0275L16.7046 18.0968L16.8742 11.4365L20.9852 13.1056Z" fill="url(#paint0_linear_1326_8298)"/>
<path d="M20.3204 1.17378C20.3204 1.17378 25.8236 1.85209 26.1907 8.38555C26.559 14.919 21.7046 16.1074 18.6947 15.3169C15.6848 14.5264 13.9483 11.0414 13.7054 9.0839C13.4611 7.1264 15.3071 0.803907 20.3204 1.17378Z" fill="url(#paint1_linear_1326_8298)"/>
<path d="M22.4653 9.94404C22.3225 9.88796 23.0472 8.77168 23.9816 8.65818C25.1108 8.52065 25.2669 9.54346 25.2429 9.74776C25.2189 9.95072 23.1553 10.2124 22.4653 9.94538V9.94404Z" fill="url(#paint2_linear_1326_8298)"/>
<path d="M24.7397 9.7684C24.7317 9.86187 24.7037 9.94866 24.661 10.0248C24.6517 10.0421 23.5425 10.1343 23.5331 10.1236C23.4264 9.99406 23.369 9.82715 23.385 9.64956C23.4183 9.28503 23.748 9.01531 24.1218 9.04869C24.4955 9.08207 24.7718 9.40387 24.7397 9.7684Z" fill="url(#paint3_linear_1326_8298)"/>
<path style="mix-blend-mode:multiply" d="M24.5022 9.74841C24.4808 9.98475 24.2673 10.1597 24.0243 10.1383C23.7814 10.1169 23.6026 9.9073 23.6239 9.67096C23.6453 9.43462 23.8588 9.2597 24.1018 9.28106C24.3447 9.30243 24.5235 9.51206 24.5022 9.74841Z" fill="url(#paint4_linear_1326_8298)"/>
<path d="M22.5253 9.71015C22.5253 9.71015 23.1272 8.10916 24.1497 8.05041C25.1721 7.99299 25.2241 9.51653 25.2241 9.51653C25.2241 9.51653 25.0573 8.70202 24.0963 8.66997C23.1353 8.63659 22.5253 9.70881 22.5253 9.70881V9.71015Z" fill="url(#paint5_linear_1326_8298)"/>
<path d="M22.4906 9.77344L22.6348 9.99376C22.6348 9.99376 22.4279 9.99509 22.4119 9.93634C22.3958 9.87625 22.4906 9.77344 22.4906 9.77344Z" fill="#D66C7C"/>
<path d="M22.7682 10.0242C22.7682 10.0242 23.549 10.2152 24.2457 10.1377C24.9425 10.0603 25.1974 9.7959 25.1974 9.7959C25.1974 9.7959 24.0829 10.119 22.7668 10.0242H22.7682Z" fill="#D66C7C"/>
<path d="M24.3366 9.2857C24.2899 9.32175 24.4901 9.34846 24.6463 9.30172C24.7864 9.259 24.8585 9.17754 24.8478 9.16019C24.8358 9.14416 24.5221 9.1455 24.3366 9.2857Z" fill="white"/>
<path d="M24.2178 9.31409C24.1631 9.28872 24.0923 9.31409 24.087 9.3448C24.0816 9.37551 24.1484 9.42091 24.1831 9.41023C24.2178 9.40088 24.2485 9.32878 24.2178 9.31409Z" fill="white"/>
<g style="mix-blend-mode:multiply" opacity="0.6">
<path d="M22.4906 9.77318C22.4906 9.77318 23.1793 8.99606 23.9869 8.9106C24.7944 8.82648 25.1374 9.31652 25.1374 9.31652C25.1374 9.31652 25.08 8.71698 24.0336 8.7023C22.9858 8.68761 22.4906 9.77185 22.4906 9.77185V9.77318Z" fill="#C978B1"/>
</g>
<path d="M22.4906 9.77275C22.4906 9.77275 23.0685 8.71789 24.151 8.73257C25.1174 8.74593 25.2388 9.61919 25.2388 9.61919C25.2388 9.61919 25.407 8.87812 24.7623 8.64445C24.1497 8.42146 23.0405 8.66581 22.4893 9.77275H22.4906Z" fill="#401432"/>
<path d="M19.49 9.64957C19.6636 9.60684 18.9908 8.20882 17.927 7.93909C16.643 7.61329 16.312 8.77364 16.3093 9.01265C16.3067 9.25166 18.6532 9.85654 19.49 9.64957Z" fill="url(#paint6_linear_1326_8298)"/>
<path d="M17.7455 9.14452C17.7375 9.35149 17.8216 9.5411 17.9591 9.67195C17.9791 9.69065 18.848 9.69999 18.8707 9.67863C19.0002 9.55979 19.0843 9.38888 19.0909 9.1966C19.1043 8.81872 18.8147 8.49959 18.4436 8.4849C18.0725 8.47021 17.7589 8.76531 17.7455 9.14319V9.14452Z" fill="url(#paint7_linear_1326_8298)"/>
<path style="mix-blend-mode:multiply" d="M17.9818 9.15418C17.9724 9.39987 18.1606 9.60683 18.4022 9.61618C18.6438 9.62553 18.8467 9.43458 18.8547 9.18889C18.864 8.9432 18.6759 8.73624 18.4343 8.72689C18.1927 8.71754 17.9898 8.90849 17.9818 9.15418Z" fill="url(#paint8_linear_1326_8298)"/>
<path d="M19.4553 9.37046C19.4553 9.37046 18.9961 7.43032 17.8229 7.21401C16.6497 6.99636 16.3654 8.7509 16.3654 8.7509C16.3654 8.7509 16.6777 7.83491 17.7935 7.93906C18.9094 8.04321 19.4566 9.3718 19.4566 9.3718L19.4553 9.37046Z" fill="url(#paint9_linear_1326_8298)"/>
<path d="M19.4861 9.44922L19.2872 9.68289C19.2872 9.68289 19.5262 9.71494 19.5528 9.64951C19.5795 9.58275 19.4861 9.45055 19.4861 9.45055V9.44922Z" fill="#D66C7C"/>
<path d="M19.1283 9.69743C19.1283 9.69743 18.1967 9.80425 17.4038 9.61064C16.611 9.41836 16.3534 9.0752 16.3534 9.0752C16.3534 9.0752 17.5934 9.61197 19.1283 9.69609V9.69743Z" fill="#D66C7C"/>
<path d="M18.7092 9.31322C18.7772 9.29319 18.8533 9.33058 18.8546 9.36663C18.856 9.40268 18.7719 9.44541 18.7345 9.42805C18.6971 9.41203 18.6718 9.3239 18.7092 9.31188V9.31322Z" fill="white"/>
<g style="mix-blend-mode:multiply" opacity="0.6">
<path d="M19.486 9.44915C19.486 9.44915 18.804 8.44903 17.883 8.23272C16.962 8.01641 16.4935 8.53315 16.4935 8.53315C16.4935 8.53315 16.647 7.8495 17.8603 7.98703C19.0723 8.12456 19.486 9.45048 19.486 9.45048V9.44915Z" fill="#C978B1"/>
</g>
<path d="M19.486 9.44873C19.486 9.44873 18.9735 8.14417 17.7188 8.00263C16.5989 7.87578 16.3307 8.86788 16.3307 8.86788C16.3307 8.86788 16.2466 7.98661 17.0247 7.81169C17.7655 7.64478 19.0122 8.09076 19.4847 9.45006L19.486 9.44873Z" fill="#401432"/>
<path d="M22.3559 11.5623C22.3559 11.5623 22.3345 11.6171 22.1223 11.6104C21.9101 11.605 21.7005 11.7773 21.3428 11.7546C20.9838 11.7319 20.8156 11.5356 20.6047 11.5142C20.3938 11.4929 20.3604 11.4355 20.3604 11.4355C20.3377 11.2953 20.3658 11.1617 20.4125 11.0496C20.4125 11.0496 20.4125 11.0469 20.4138 11.0456C20.4966 10.8479 20.6314 10.7144 20.6314 10.7144C21.1506 10.5034 21.6912 10.5382 22.1797 10.8132C22.1797 10.8132 22.2544 10.9094 22.3132 11.0536V11.0549C22.3692 11.1951 22.4119 11.378 22.3559 11.5637V11.5623Z" fill="url(#paint10_linear_1326_8298)"/>
<path d="M21.8673 11.6636C21.8673 11.6636 22.0395 11.5341 22.237 11.6075L21.8673 11.6636Z" fill="#812852"/>
<path d="M20.4965 11.4972C20.4965 11.4972 20.706 11.4491 20.9009 11.6254L20.4965 11.4972Z" fill="#812852"/>
<g style="mix-blend-mode:multiply" opacity="0.6">
<path d="M22.3558 11.5625C22.3558 11.5625 22.3344 11.6173 22.1222 11.6106C21.91 11.6053 21.7004 11.7775 21.3427 11.7548C20.9836 11.7321 20.8155 11.5358 20.6046 11.5145C20.3937 11.4931 20.3603 11.4357 20.3603 11.4357C20.3376 11.2955 20.3657 11.162 20.4124 11.0498C20.403 11.0832 20.3443 11.2982 20.4244 11.3569C20.5125 11.4197 21.0344 11.4197 21.3614 11.441C21.6884 11.4624 22.2436 11.4985 22.3117 11.4157C22.3771 11.3369 22.3184 11.0792 22.3117 11.0551C22.3678 11.1953 22.4105 11.3783 22.3544 11.5639L22.3558 11.5625Z" fill="#C978B1"/>
</g>
<path style="mix-blend-mode:multiply" opacity="0.6" d="M22.1783 10.8122C22.1783 10.8122 22.0394 11.1647 22.0368 11.4184C22.0368 11.4184 21.966 11.166 22.1062 10.7734L22.1783 10.8122Z" fill="url(#paint11_linear_1326_8298)"/>
<path style="mix-blend-mode:multiply" opacity="0.6" d="M20.6487 10.7139C20.6487 10.7139 20.7421 11.0811 20.7127 11.3335C20.7127 11.3335 20.8155 11.0932 20.7261 10.6846L20.65 10.7139H20.6487Z" fill="url(#paint12_linear_1326_8298)"/>
<g style="mix-blend-mode:multiply" opacity="0.6">
<path d="M20.4257 11.3568C20.4257 11.3568 20.3724 11.4089 20.3603 11.4356C20.3483 11.4636 20.7941 11.9417 21.328 11.975C21.8619 12.0084 22.3424 11.6172 22.3558 11.5624C22.3691 11.509 22.2864 11.4342 22.2864 11.4342C22.2864 11.4342 21.8659 11.473 21.3614 11.4396C20.8582 11.4075 20.4244 11.3555 20.4244 11.3555L20.4257 11.3568Z" fill="#C978B1"/>
</g>
<path d="M21.7952 11.3444C21.7218 11.2963 21.8633 11.1801 21.8993 11.1868C21.9354 11.1948 21.9487 11.2763 21.926 11.327C21.9034 11.3777 21.8259 11.3644 21.7952 11.3444Z" fill="#FBC9B8"/>
<path d="M22.5482 7.24529C22.5482 7.24529 22.8605 7.14114 23.5893 7.17853C23.8055 7.18921 24.0578 7.21324 24.3501 7.25597C25.6275 7.44291 26.5138 7.75536 26.5138 7.75536C26.5084 7.73266 26.2028 7.14247 25.7703 6.85406C25.773 6.8594 25.821 6.96088 25.805 7.06236C25.805 7.06236 25.3192 6.62038 24.6131 6.39606C24.4809 6.35467 24.3421 6.31995 24.1966 6.29858C23.273 6.15705 22.7751 6.80332 22.7751 6.80332C22.7751 6.80332 22.8125 6.6284 22.9206 6.53092C22.9206 6.53092 22.6016 6.70184 22.5469 7.24395L22.5482 7.24529Z" fill="url(#paint13_linear_1326_8298)"/>
<path style="mix-blend-mode:multiply" opacity="0.6" d="M23.5892 7.17993C23.8055 7.19061 24.0577 7.21464 24.35 7.25737C25.6274 7.44431 26.5137 7.75676 26.5137 7.75676C26.5083 7.73406 26.2027 7.14388 25.7702 6.85546C25.7729 6.8608 25.8209 6.96228 25.8049 7.06376C25.8049 7.06376 25.3191 6.62179 24.613 6.39746C24.8559 6.54568 25.3845 6.87816 25.6661 7.34016C25.6661 7.34016 24.9934 7.03705 23.5879 7.17859L23.5892 7.17993Z" fill="url(#paint14_linear_1326_8298)"/>
<path d="M19.6239 6.99093C19.6239 6.99093 19.3343 6.83471 18.6109 6.74658C18.396 6.71987 18.1424 6.69984 17.8474 6.69183C16.5567 6.65578 15.6304 6.81201 15.6304 6.81201C15.6397 6.79064 16.0428 6.26188 16.518 6.05224C16.514 6.05758 16.4499 6.14838 16.4486 6.25119C16.4486 6.25119 17.0025 5.89868 17.7366 5.80121C17.8728 5.78252 18.0169 5.77317 18.1637 5.77584C19.0981 5.79587 19.4771 6.51825 19.4771 6.51825C19.4771 6.51825 19.4704 6.33932 19.381 6.22449C19.381 6.22449 19.6667 6.44748 19.6266 6.99227L19.6239 6.99093Z" fill="url(#paint15_linear_1326_8298)"/>
<path style="mix-blend-mode:multiply" opacity="0.6" d="M18.6095 6.74615C18.3946 6.71944 18.141 6.69942 17.846 6.6914C16.5553 6.65535 15.629 6.81158 15.629 6.81158C15.6384 6.79021 16.0415 6.26145 16.5166 6.05181C16.5126 6.05715 16.4486 6.14795 16.4472 6.25077C16.4472 6.25077 17.0012 5.89826 17.7353 5.80078C17.4696 5.90493 16.893 6.14127 16.5353 6.54853C16.5353 6.54853 17.2508 6.36693 18.6095 6.74749V6.74615Z" fill="url(#paint16_linear_1326_8298)"/>
<path d="M13.0233 9.46381C13.0513 9.61069 13.082 9.74288 13.1167 9.86038L13.1194 9.86572C13.3637 10.7096 13.7547 10.9152 13.9056 11.2971C14.0364 11.6269 14.5649 12.2946 15.1122 11.6216C15.1135 11.6216 15.1149 11.6203 15.1149 11.6203C15.1149 11.6203 14.9133 8.83623 14.7184 8.32749C14.7184 8.32749 14.4381 7.56372 13.9096 7.43954C13.2302 7.27931 12.783 8.1686 13.0246 9.46514L13.0233 9.46381Z" fill="url(#paint17_linear_1326_8298)"/>
<path style="mix-blend-mode:multiply" opacity="0.6" d="M14.9613 9.89117C14.9613 9.89117 13.9229 8.32089 13.4144 8.20873C12.9058 8.0979 13.1367 9.41715 13.2302 9.85779C13.3249 10.2984 13.4731 10.5601 13.4731 10.5601C13.4731 10.5601 13.3543 10.0407 13.3369 9.62144C13.3116 9.01924 13.5131 8.5065 13.7267 8.55991C13.9403 8.61332 14.2139 9.37442 14.2312 9.46121C14.2486 9.548 14.0844 9.69889 14.0857 10.1662C14.0857 10.6336 14.2993 11.145 14.4208 11.141C14.5422 11.137 14.4968 10.7578 14.5049 10.3211C14.5129 9.88449 14.8519 9.97662 14.9974 10.2624L14.96 9.89117H14.9613Z" fill="url(#paint18_linear_1326_8298)"/>
<path style="mix-blend-mode:multiply" opacity="0.6" d="M14.9987 10.2628C14.9987 10.2628 14.7317 9.84222 14.5635 10.0278C14.3954 10.2134 14.5035 10.7382 14.3767 10.7996C14.2499 10.8597 14.0884 10.4337 14.1284 10.0479C14.1685 9.66196 14.3286 9.31746 14.5449 9.3869L14.96 9.89296L14.9973 10.2642L14.9987 10.2628Z" fill="url(#paint19_linear_1326_8298)"/>
<path style="mix-blend-mode:multiply" d="M13.118 9.86621C13.3623 10.7101 13.7534 10.9157 13.9042 11.2976C14.035 11.6274 14.5636 12.2951 15.1108 11.6221C15.0788 11.6475 14.7651 11.8931 14.4528 11.773C14.1244 11.6461 14.0243 11.335 13.8895 11.0933C13.7547 10.8516 13.3997 10.6807 13.118 9.86755V9.86621Z" fill="url(#paint20_linear_1326_8298)"/>
<path d="M32.5828 28.5459C32.5828 28.5459 30.9344 40.9772 28.1221 40.7422C25.3097 40.5072 28.4891 30.7478 28.4891 30.7478L32.5828 28.5459Z" fill="url(#paint21_linear_1326_8298)"/>
<path d="M18.6013 59.5265L5.82241 110.42L0.769043 109.837L3.68414 104.586L11.5752 55.709L18.6013 59.5265Z" fill="#F8AEA0"/>
<path opacity="0.2" d="M4.46497 99.7514L11.5752 55.709L18.6026 59.5265L8.30638 100.527C7.02902 100.255 5.74766 99.9971 4.46497 99.7514Z" fill="#201829"/>
<path d="M20.3965 56.8481L21.8741 107.694L25.5486 105.316L30.3844 54.498L20.3965 56.8481Z" fill="#F8AEA0"/>
<path opacity="0.2" d="M21.6578 100.246L20.3965 56.8475L30.3844 54.4961L26.0358 100.194C24.5769 100.148 23.0967 100.222 21.6578 100.246Z" fill="#201829"/>
<path d="M28.6573 30.0107L27.6629 42.9094L11.6846 40.7917L16.3388 32.6733L28.6573 30.0107Z" fill="#E8A723"/>
<path d="M28.1848 35.1445C28.1848 35.1445 23.3223 37.1408 14.7839 35.672C14.7839 35.672 7.08506 42.7088 5.91848 51.6524C5.10028 57.9309 1.45508 97.2985 1.45508 97.2985L13.03 98.1771L23.6053 47.9578L18.357 52.6245L19.912 97.7325L32.0289 98.6819C32.0289 98.6819 36.2387 58.457 28.1848 35.1445Z" fill="#E5BF22"/>
<path opacity="0.2" d="M21.8086 51.0688C25.5606 49.0473 28.4543 46.5984 30.6113 44.3164C35.2749 67.6635 32.0288 98.6818 32.0288 98.6818L19.9119 97.7324L18.9576 70.027L18.4611 72.3864C20.3564 61.281 21.8086 51.0675 21.8086 51.0675V51.0688Z" fill="#201829"/>
<path opacity="0.2" d="M15.4165 34.2816L16.3388 32.6726L28.6572 30.0088L28.2555 35.223C24.685 35.5154 19.6103 35.5782 15.4165 34.2816Z" fill="#201829"/>
<path d="M23.1181 18.2574C23.1181 18.2574 25.1589 17.8194 26.762 18.4029C28.365 18.9864 30.8436 24.0898 31.4269 26.277C32.0102 28.4642 32.1557 31.8183 32.1557 31.8183C32.1557 31.8183 19.1819 36.0471 14.226 33.5689L11.7474 27.006C11.7474 27.006 7.81119 19.7142 11.4564 19.4231L14.8093 18.9851C14.8093 18.9851 22.5348 22.4848 23.1181 18.256V18.2574Z" fill="#722D15"/>
<path opacity="0.1" d="M30.2429 23.2455C25.5579 27.258 19.5489 29.9605 13.5892 31.882L14.2259 33.5684C19.1818 36.048 32.1556 31.8179 32.1556 31.8179C32.1556 31.8179 32.0101 28.4637 31.4268 26.2765C31.224 25.5154 30.7888 24.3991 30.2429 23.2441V23.2455Z" fill="#201829"/>
<path d="M16.4723 26.3597L18.6373 33.3445L27.0182 30.7915C27.0182 30.7915 26.3868 28.2411 27.0235 27.9126C28.6706 27.0607 33.2007 27.448 28.2902 28.3146C28.2902 28.3146 36.272 28.4214 28.8695 29.4028C28.8695 29.4028 29.8011 32.5287 28.6092 33.2123C27.4173 33.896 17.8151 39.2117 15.6461 39.1569C13.4771 39.1035 11.156 28.5229 11.156 28.5229L16.4723 26.3584V26.3597Z" fill="url(#paint22_linear_1326_8298)"/>
<path d="M17.6363 27.5052L10.0976 30.603C10.0976 30.603 7.15982 20.7714 11.455 19.4255C15.7503 18.0795 17.6349 27.5065 17.6349 27.5065L17.6363 27.5052Z" fill="#722D15"/>
<path d="M32.117 34.7843C32.0423 35.0727 31.7473 35.2436 31.4603 35.1688L27.9886 34.2582C27.7003 34.1834 27.5295 33.8883 27.6042 33.5999L29.7198 25.5242C29.7945 25.2358 30.0895 25.0648 30.3765 25.1396L33.8482 26.0503C34.1351 26.125 34.3073 26.4201 34.2326 26.7086L32.117 34.7843Z" fill="#2B2238"/>
<path d="M33.8788 30.3773C33.8788 30.3773 34.4167 28.6722 33.9682 28.5814C33.5197 28.492 28.2248 27.5039 33.1607 29.0301C33.1607 29.0301 26.6097 28.6709 32.8016 30.0182C32.8016 30.0182 27.6869 29.8392 32.6228 31.0063C32.6228 31.0063 28.3155 31.276 32.7122 32.0838C32.7122 32.0838 33.7893 32.1733 33.8788 30.3787V30.3773Z" fill="url(#paint23_linear_1326_8298)"/>
<g style="mix-blend-mode:multiply" opacity="0.6">
<path d="M19.3329 12.7012C19.3329 12.7012 20.0563 13.9363 21.016 14.0418C21.9757 14.1459 22.9474 13.0964 22.9474 13.0964C22.9474 13.0964 21.8823 13.4609 21.0881 13.3741C20.2939 13.2874 19.3329 12.7025 19.3329 12.7025V12.7012Z" fill="#CE78B1"/>
</g>
<path d="M21.1254 13.0376C21.1254 13.0376 20.2925 12.9722 19.182 12.5449C19.182 12.5449 19.8934 13.4035 21.072 13.5317C22.2493 13.6599 23.1302 12.9749 23.1302 12.9749C21.9529 13.1525 21.1267 13.0363 21.1267 13.0363L21.1254 13.0376Z" fill="#EF7172"/>
<path d="M21.1494 12.819C20.5408 12.7522 19.182 12.5439 19.182 12.5439C20.0096 13.0367 21.1147 13.1328 21.1147 13.1328C21.1147 13.1328 22.2146 13.277 23.1289 12.9752C23.1289 12.9752 21.7567 12.8858 21.1481 12.819H21.1494Z" fill="#DE4E6C"/>
<g style="mix-blend-mode:soft-light" opacity="0.5">
<path d="M21.9956 13.2754C21.8675 13.2914 21.6219 13.3208 21.6152 13.3902C21.6085 13.4596 21.6579 13.4877 21.7887 13.4904C21.9195 13.493 22.1745 13.4223 22.2412 13.3662C22.308 13.3101 22.069 13.2674 21.997 13.2754H21.9956Z" fill="#FDF7BA"/>
</g>
<path d="M19.4382 12.3085C19.4382 12.3085 19.1326 12.5142 19.0258 12.6931C19.0258 12.6931 18.9057 12.5088 18.9844 12.3646C19.0698 12.207 19.4382 12.3085 19.4382 12.3085Z" fill="#DC6B7D"/>
<path d="M22.902 12.6875C22.902 12.6875 23.1569 12.9546 23.2223 13.1522C23.2223 13.1522 23.3798 12.9973 23.3344 12.8411C23.2851 12.6688 22.9033 12.6888 22.9033 12.6888L22.902 12.6875Z" fill="#DC6B7D"/>
<path d="M19.2487 12.4561C19.2487 12.4561 19.3328 12.6056 19.5597 12.7365C19.5597 12.7365 19.2487 12.6016 19.1539 12.5415L19.25 12.4561H19.2487Z" fill="#842852"/>
<path d="M23.0555 12.8711C23.0555 12.8711 22.9981 12.9592 22.8619 13.05C22.8619 13.05 23.0995 13.018 23.1489 13.0046L23.0555 12.8711Z" fill="#842852"/>
<path d="M28.7334 11.3794L28.7307 11.3834C28.3997 11.7346 27.9792 12.1685 27.9205 12.1926C27.8204 12.2326 26.8367 12.5998 26.8367 12.5998C26.8367 12.5998 26.3909 13.0992 25.9144 13.4544H25.602C25.602 13.4544 26.2254 10.7892 26.1506 8.59268C26.0772 6.40017 25.1415 4.5308 24.7438 3.59344C24.7611 3.64952 25.1562 4.07814 25.1709 4.68035L22.9526 4.53614C22.9526 4.53614 23.1755 2.93248 22.7136 2.30223C22.7136 2.30223 22.9379 3.72162 22.8191 4.56151L21.152 4.35187C21.152 4.35187 21.1333 2.26351 20.554 1.55449L20.3204 1.54113C20.3204 1.54113 19.302 2.70949 19.3808 4.63628L18.3303 4.77648C18.3303 4.77648 18.2502 3.37579 18.8268 2.16604C18.8268 2.16737 18.8255 2.16737 18.8242 2.16871C18.8228 2.17271 18.8175 2.17672 18.8162 2.18073C18.7815 2.23547 18.6547 2.43176 18.5065 2.72017C18.5038 2.72418 18.5012 2.72818 18.5012 2.73219C18.2342 3.25695 17.9005 4.07814 17.9139 4.89799H16.3455L16.2655 3.99535L16.136 4.89799L15.6501 4.95942C15.6501 4.95942 15.3872 6.16116 15.0348 7.88231C14.6891 9.56876 15.5647 12.8041 16.3842 13.417C16.4016 13.429 16.4176 13.4424 16.435 13.4517H15.7636C15.7636 13.4517 15.4473 13.2995 15.0775 13.0378C15.0709 13.0351 15.0668 13.0324 15.0615 13.0284C14.9934 12.9804 14.9227 12.927 14.852 12.8735C14.8493 12.8709 14.8439 12.8669 14.8399 12.8629C14.6424 12.7053 14.4422 12.5197 14.278 12.3154C14.1178 12.1138 13.991 11.8921 13.9323 11.6571C13.9617 11.8027 14.0992 12.4423 14.3861 13.0324C14.3861 13.0324 13.5319 12.039 13.1448 11.561C12.9286 11.2939 12.1691 10.7051 11.5765 9.8278V9.82379C11.4644 9.66356 11.3629 9.49398 11.2708 9.31372C11.104 8.99326 10.9718 8.64208 10.8958 8.26287C10.8958 8.26287 12.1771 7.3215 13.0113 5.62705C13.3637 4.91001 13.6253 4.1222 13.9336 3.39315C13.9363 3.38647 13.939 3.3798 13.9417 3.37178C13.9497 3.35443 13.9563 3.33573 13.9657 3.31704C14.0004 3.23692 14.0351 3.15814 14.0711 3.07802C14.1005 3.01393 14.1312 2.95117 14.1619 2.89109C14.2273 2.74821 14.298 2.60935 14.3754 2.47448C14.4008 2.43042 14.4262 2.38636 14.4542 2.34363C14.4635 2.32493 14.4715 2.31158 14.4782 2.30223C14.4796 2.29956 14.4796 2.29823 14.4809 2.29556H14.4822L14.4836 2.29155L14.4849 2.28888C14.8119 1.76279 15.2163 1.32482 15.7796 1.04575C16.6592 0.610452 17.4681 -0.04917 18.1995 0.00290537C18.2275 0.00424064 18.2542 0.0055759 18.2809 0.00824644C19.0884 0.076345 19.7985 0.279306 20.3978 0.268623C20.7943 0.261947 21.4042 0.221889 22.0783 0.20186H22.081C22.7003 0.184502 23.3717 0.181831 23.9816 0.240583C23.987 0.241918 23.991 0.243253 23.9963 0.243253C24.669 0.307346 25.267 1.03774 25.6287 1.29811C25.9157 1.50642 26.1653 1.77213 26.3895 2.07925C26.3922 2.08192 26.3949 2.08325 26.3949 2.08592C26.6245 2.40505 26.8233 2.76557 26.9982 3.14612C26.9995 3.14746 26.9995 3.15013 27.0009 3.1528C27.6375 4.5308 27.9672 6.16249 28.353 6.95831C28.9483 8.18676 29.8265 8.04522 29.7371 8.817C29.7277 8.90513 29.8479 9.63285 29.7958 9.74501C29.6984 9.95732 29.5382 10.2017 29.3513 10.4514" fill="url(#paint24_linear_1326_8298)"/>
<path d="M20.3403 9.60267C20.5393 8.37613 19.7067 7.22042 18.4806 7.02132C17.2546 6.82223 16.0993 7.65514 15.9003 8.88168C15.7013 10.1082 16.5338 11.2639 17.7599 11.463C18.986 11.6621 20.1412 10.8292 20.3403 9.60267Z" stroke="#231F20" stroke-miterlimit="10"/>
<path d="M24.8463 11.6029C26.0552 11.3175 26.8039 10.1057 26.5186 8.89633C26.2333 7.68696 25.022 6.93797 23.8131 7.2234C22.6042 7.50884 21.8554 8.72062 22.1408 9.92999C22.4261 11.1394 23.6374 11.8884 24.8463 11.6029Z" stroke="#231F20" stroke-miterlimit="10"/>
<path d="M20.3685 9.24158L21.3215 8.93848L22.081 9.41116" stroke="#231F20" stroke-miterlimit="10"/>
<path d="M15.8998 8.87973L14.8226 7.41895" stroke="#231F20" stroke-miterlimit="10"/>
</g>
<defs>
<linearGradient id="paint0_linear_1326_8298" x1="24.9272" y1="18.0284" x2="13.9992" y2="17.0804" gradientUnits="userSpaceOnUse">
<stop stop-color="#F9AF9C"/>
<stop offset="0.2" stop-color="#F69B8E"/>
<stop offset="0.47" stop-color="#F48781"/>
<stop offset="0.73" stop-color="#F37B79"/>
<stop offset="1" stop-color="#F37777"/>
</linearGradient>
<linearGradient id="paint1_linear_1326_8298" x1="26.2734" y1="8.82643" x2="13.7511" y2="7.7401" gradientUnits="userSpaceOnUse">
<stop stop-color="#F8A795"/>
<stop offset="0.43" stop-color="#F8A997"/>
<stop offset="0.52" stop-color="#F7A290"/>
<stop offset="0.76" stop-color="#F69684"/>
<stop offset="1" stop-color="#F69280"/>
</linearGradient>
<linearGradient id="paint2_linear_1326_8298" x1="23.8287" y1="10.1271" x2="24.1087" y2="8.5332" gradientUnits="userSpaceOnUse">
<stop stop-color="#E6DBEC"/>
<stop offset="1" stop-color="#B8C1E2"/>
</linearGradient>
<linearGradient id="paint3_linear_1326_8298" x1="24.044" y1="10.1483" x2="24.1438" y2="9.02596" gradientUnits="userSpaceOnUse">
<stop stop-color="#57345B"/>
<stop offset="1" stop-color="#301138"/>
</linearGradient>
<linearGradient id="paint4_linear_1326_8298" x1="24.0468" y1="10.1177" x2="24.1232" y2="9.25837" gradientUnits="userSpaceOnUse">
<stop stop-color="#A093B6"/>
<stop offset="0.99" stop-color="#734B61"/>
</linearGradient>
<linearGradient id="paint5_linear_1326_8298" x1="22.6304" y1="8.75942" x2="25.2908" y2="8.99582" gradientUnits="userSpaceOnUse">
<stop stop-color="#F7A190"/>
<stop offset="0.43" stop-color="#F3A592"/>
<stop offset="0.51" stop-color="#F39F8D"/>
<stop offset="0.76" stop-color="#F49383"/>
<stop offset="1" stop-color="#F58F80"/>
</linearGradient>
<linearGradient id="paint6_linear_1326_8298" x1="17.9779" y1="9.82049" x2="17.8891" y2="7.93719" gradientUnits="userSpaceOnUse">
<stop stop-color="#E6DBEC"/>
<stop offset="1" stop-color="#B8C1E2"/>
</linearGradient>
<linearGradient id="paint7_linear_1326_8298" x1="18.4181" y1="9.74427" x2="18.4641" y2="8.53539" gradientUnits="userSpaceOnUse">
<stop stop-color="#57345B"/>
<stop offset="1" stop-color="#301138"/>
</linearGradient>
<linearGradient id="paint8_linear_1326_8298" x1="18.4212" y1="9.66451" x2="18.455" y2="8.77587" gradientUnits="userSpaceOnUse">
<stop stop-color="#A093B6"/>
<stop offset="0.99" stop-color="#734B61"/>
</linearGradient>
<linearGradient id="paint9_linear_1326_8298" x1="19.515" y1="8.36724" x2="16.4046" y2="8.24888" gradientUnits="userSpaceOnUse">
<stop stop-color="#F7A190"/>
<stop offset="0.43" stop-color="#F3A592"/>
<stop offset="0.51" stop-color="#F39F8D"/>
<stop offset="0.76" stop-color="#F49383"/>
<stop offset="1" stop-color="#F58F80"/>
</linearGradient>
<linearGradient id="paint10_linear_1326_8298" x1="21.3442" y1="11.7047" x2="21.4193" y2="10.5294" gradientUnits="userSpaceOnUse">
<stop stop-color="#F37B7F"/>
<stop offset="0.4" stop-color="#F3817F"/>
<stop offset="1" stop-color="#F48680"/>
</linearGradient>
<linearGradient id="paint11_linear_1326_8298" x1="22.0757" y1="11.3703" x2="22.117" y2="10.7227" gradientUnits="userSpaceOnUse">
<stop stop-color="#FBE3D4"/>
<stop offset="0.99" stop-color="#AE7CB7"/>
</linearGradient>
<linearGradient id="paint12_linear_1326_8298" x1="20.68" y1="11.2822" x2="20.7213" y2="10.6346" gradientUnits="userSpaceOnUse">
<stop stop-color="#FBE3D4"/>
<stop offset="0.99" stop-color="#AE7CB7"/>
</linearGradient>
<linearGradient id="paint13_linear_1326_8298" x1="24.6186" y1="6.49814" x2="24.5381" y2="7.42533" gradientUnits="userSpaceOnUse">
<stop stop-color="#31111B"/>
<stop offset="1" stop-color="#1A0F21"/>
</linearGradient>
<linearGradient id="paint14_linear_1326_8298" x1="26.5695" y1="7.11257" x2="23.6174" y2="6.85647" gradientUnits="userSpaceOnUse">
<stop stop-color="#31111B"/>
<stop offset="1" stop-color="#1A0F21"/>
</linearGradient>
<linearGradient id="paint15_linear_1326_8298" x1="17.7194" y1="5.85555" x2="17.6389" y2="6.78274" gradientUnits="userSpaceOnUse">
<stop stop-color="#31111B"/>
<stop offset="1" stop-color="#1A0F21"/>
</linearGradient>
<linearGradient id="paint16_linear_1326_8298" x1="18.6377" y1="6.42277" x2="15.6857" y2="6.16667" gradientUnits="userSpaceOnUse">
<stop stop-color="#31111B"/>
<stop offset="1" stop-color="#1A0F21"/>
</linearGradient>
<linearGradient id="paint17_linear_1326_8298" x1="13.9768" y1="13.2477" x2="14.0678" y2="8.46699" gradientUnits="userSpaceOnUse">
<stop stop-color="#F7A190"/>
<stop offset="0.43" stop-color="#F3A592"/>
<stop offset="0.51" stop-color="#F39F8D"/>
<stop offset="0.76" stop-color="#F49383"/>
<stop offset="1" stop-color="#F58F80"/>
</linearGradient>
<linearGradient id="paint18_linear_1326_8298" x1="14.0005" y1="12.0035" x2="14.0631" y2="8.71271" gradientUnits="userSpaceOnUse">
<stop stop-color="#F7A190"/>
<stop offset="0.43" stop-color="#F3A592"/>
<stop offset="0.51" stop-color="#F39F8D"/>
<stop offset="0.76" stop-color="#F49383"/>
<stop offset="1" stop-color="#F58F80"/>
</linearGradient>
<linearGradient id="paint19_linear_1326_8298" x1="14.5492" y1="10.8058" x2="14.5764" y2="9.376" gradientUnits="userSpaceOnUse">
<stop stop-color="#F7A190"/>
<stop offset="0.43" stop-color="#F3A592"/>
<stop offset="0.51" stop-color="#F39F8D"/>
<stop offset="0.76" stop-color="#F49383"/>
<stop offset="1" stop-color="#F58F80"/>
</linearGradient>
<linearGradient id="paint20_linear_1326_8298" x1="13.1003" y1="10.8711" x2="15.1247" y2="10.9096" gradientUnits="userSpaceOnUse">
<stop stop-color="#F7A190"/>
<stop offset="0.43" stop-color="#F3A592"/>
<stop offset="0.51" stop-color="#F39F8D"/>
<stop offset="0.76" stop-color="#F49383"/>
<stop offset="1" stop-color="#F58F80"/>
</linearGradient>
<linearGradient id="paint21_linear_1326_8298" x1="26.9608" y1="34.6454" x2="32.5828" y2="34.6454" gradientUnits="userSpaceOnUse">
<stop stop-color="#F8A795"/>
<stop offset="0.43" stop-color="#F8A997"/>
<stop offset="0.52" stop-color="#F7A290"/>
<stop offset="0.76" stop-color="#F69684"/>
<stop offset="1" stop-color="#F69280"/>
</linearGradient>
<linearGradient id="paint22_linear_1326_8298" x1="11.156" y1="32.7583" x2="32.0141" y2="32.7583" gradientUnits="userSpaceOnUse">
<stop stop-color="#F8A795"/>
<stop offset="0.43" stop-color="#F8A997"/>
<stop offset="0.52" stop-color="#F7A290"/>
<stop offset="0.76" stop-color="#F69684"/>
<stop offset="1" stop-color="#F69280"/>
</linearGradient>
<linearGradient id="paint23_linear_1326_8298" x1="30.1401" y1="30.1343" x2="34.1471" y2="30.1343" gradientUnits="userSpaceOnUse">
<stop stop-color="#F8A795"/>
<stop offset="0.43" stop-color="#F8A997"/>
<stop offset="0.52" stop-color="#F7A290"/>
<stop offset="0.76" stop-color="#F69684"/>
<stop offset="1" stop-color="#F69280"/>
</linearGradient>
<linearGradient id="paint24_linear_1326_8298" x1="20.3525" y1="13.4544" x2="20.3525" y2="0.000234164" gradientUnits="userSpaceOnUse">
<stop stop-color="#31111B"/>
<stop offset="1" stop-color="#1A0F21"/>
</linearGradient>
</defs>
</svg>
