<svg width="32" height="75" viewBox="0 0 32 75" fill="none" xmlns="http://www.w3.org/2000/svg">
<g style="mix-blend-mode:luminosity" opacity="0.15">
<path d="M13.2115 19.4684C15.6733 19.2799 17.8213 21.1192 18.0101 23.5754L10.9788 68.3104L5.65393 67.9736L9.12517 24.5235C8.77527 21.9786 10.6456 19.6652 13.2115 19.4684Z" fill="url(#paint0_linear_1326_8166)"/>
<path d="M17.888 24.3506C15.1693 24.4421 11.98 24.5516 9.11549 24.65L7.97693 38.9005L15.4706 39.7377L17.8894 24.352L17.888 24.3506Z" fill="url(#paint1_linear_1326_8166)"/>
<path d="M3.4657 74.0465H11.8258L11.2968 68.0322H4.99998L3.4657 74.0465Z" fill="#010101"/>
<path d="M4.46814 68.3943C4.92218 68.3042 5.39982 68.2848 5.8844 68.3458C6.30095 68.3971 6.69667 68.5052 7.06601 68.6604" stroke="white" stroke-width="2.56" stroke-linecap="round" stroke-linejoin="round"/>
<path d="M2.71179 69.805C3.40743 69.471 4.19887 69.3129 5.02364 69.3822C5.59014 69.4308 6.12332 69.5818 6.60652 69.8175" stroke="white" stroke-width="2.56" stroke-linecap="round" stroke-linejoin="round"/>
<path d="M9.00854 74.0462H0.0819092C0.0819092 71.5858 2.07995 69.5898 4.54592 69.5898C7.01189 69.5898 9.00993 71.5844 9.00993 74.0462H9.00854Z" fill="#010101"/>
<path d="M0 74.0467H11.8258L11.7425 73.0889H0V74.0467Z" fill="white"/>
<path d="M50.126 3.48469C50.0025 3.32806 49.6165 3.35024 49.3388 3.42232L44.9386 4.68367L45.1052 3.22549C45.1747 2.89144 44.94 2.56294 44.5915 2.52551C44.2888 2.49363 44.0153 2.71679 43.9542 3.0148L43.7806 3.85339C43.714 4.17497 43.5585 4.47298 43.3335 4.71139C43.0864 4.97336 42.8864 5.27692 42.7448 5.6082L42.4574 6.27491L31.9104 8.93346L28.4489 -0.145508L23.3809 1.82137L27.5616 12.7882C27.6449 13.0017 27.7532 13.1957 27.881 13.3731C28.4683 14.5208 29.8096 15.1196 31.0884 14.7329L43.5585 9.93145C43.5585 9.93145 44.2874 10.1255 45.4177 9.92036C46.0939 9.79839 46.7367 9.56413 47.1463 9.39641L47.9905 9.20236C48.2807 9.13583 48.464 8.84336 48.3974 8.55367L48.364 8.40951C48.3099 8.17249 48.103 8.01031 47.8711 7.99368L47.9919 7.96596C48.3154 7.89111 48.5196 7.56538 48.4446 7.24241L48.439 7.21885C48.3738 6.93886 48.1211 6.75035 47.8447 6.75173C48.1641 6.67272 48.3627 6.35115 48.2891 6.03096L48.2835 6.0074C48.2085 5.68444 47.8822 5.48068 47.5587 5.55553L47.2158 5.63454L49.9539 4.28586C50.2635 4.14448 50.4079 3.84092 50.1247 3.4833L50.126 3.48469Z" fill="url(#paint2_linear_1326_8166)"/>
<path d="M31.5466 5.12037L30.8482 5.64293C29.3777 6.74488 27.6505 7.45872 25.8287 7.71654L24.9512 7.8399L21.8493 0.0652599C21.0968 -1.75192 23.7627 -5.36133 23.7627 -5.36133C25.8857 -4.95659 27.6907 -4.47145 28.4433 -2.65427L31.5452 5.12037H31.5466Z" fill="#F79327"/>
<path d="M22.7686 19.4933C25.2248 19.2424 27.4186 21.0263 27.67 23.4769L29.954 46.6747C29.9929 47.0697 30.004 47.4662 29.9887 47.8626L29.2195 67.627L23.8599 68.1745L22.7144 48.7857C22.688 48.3366 22.6381 47.8903 22.5645 47.4454L18.8128 24.6496C18.3976 22.1144 20.2082 19.7538 22.7686 19.4919V19.4933Z" fill="url(#paint3_linear_1326_8166)"/>
<path d="M29.2195 67.627L36.273 69.9016C37.4185 70.2716 38.3002 71.1934 38.6182 72.3522L38.8306 74.0058H24.039L23.8627 68.1745L29.2223 67.627H29.2195Z" fill="#010101"/>
<path d="M32.4936 73.0475C32.8532 71.0502 34.0751 69.9607 34.8707 69.4492L35.4858 69.6474C34.8749 69.9704 33.3989 70.9531 32.9824 73.0475H38.7043L38.8265 74.0053H24.0349L24.0057 73.0475H32.4922H32.4936Z" fill="white"/>
<path d="M32.0547 70.0309L32.1391 70.1152C32.2953 70.2711 32.5485 70.2711 32.7046 70.1152L33.8052 69.0165C33.9614 68.8606 33.9614 68.6078 33.8052 68.4519L33.7208 68.3676C33.5646 68.2117 33.3115 68.2117 33.1553 68.3676L32.0547 69.4663C31.8985 69.6222 31.8985 69.875 32.0547 70.0309Z" fill="white"/>
<path d="M30.6821 69.6494L30.5986 69.5661C30.4425 69.4102 30.4425 69.1573 30.5986 69.0015L31.6983 67.9038C31.8544 67.7479 32.1077 67.7479 32.2638 67.9038L32.3472 67.9871C32.5033 68.1429 32.5033 68.3958 32.3472 68.5516L31.2476 69.6494C31.0915 69.8052 30.8382 69.8052 30.6821 69.6494Z" fill="white"/>
<path d="M29.0794 69.0417L29.1638 69.126C29.32 69.2818 29.5732 69.2818 29.7294 69.1259L30.8298 68.027C30.9859 67.8711 30.9859 67.6183 30.8297 67.4624L30.7452 67.3781C30.589 67.2223 30.3359 67.2223 30.1797 67.3782L29.0793 68.4772C28.9232 68.6331 28.9232 68.8858 29.0794 69.0417Z" fill="white"/>
<path d="M27.1659 16.7035H9.99574C9.99574 16.7035 6.77027 20.8674 7.13544 26.9829C7.46729 32.5425 6.83691 37.3634 6.83691 37.3634L17.9699 38.2172L19.1112 33.1496L19.3403 38.2172L30.258 36.8422L27.1659 16.7021V16.7035Z" fill="#545571"/>
<path d="M27.3992 18.2167L27.1673 16.7031H9.99579C9.99579 16.7031 8.9933 17.9977 8.16992 20.203C20.7525 21.2689 27.3992 18.2167 27.3992 18.2167Z" fill="#545571"/>
<path d="M21.3593 23.9534H21.6231C22.2035 23.9534 22.6728 23.4835 22.6728 22.9055L22.7616 16.7041" stroke="#7EA3D4" stroke-width="0.64" stroke-linecap="round" stroke-linejoin="round"/>
<path d="M19.1112 33.1506C19.1112 33.1506 21.1926 30.1525 21.2453 26.191C21.2981 22.2295 21.5105 16.7031 21.5105 16.7031" stroke="#7EA3D4" stroke-width="0.64" stroke-linecap="round" stroke-linejoin="round"/>
<path d="M26.816 -2.20712C26.8993 -3.66669 25.8843 -4.95992 24.4458 -5.23159L21.1301 -5.85673C19.425 -6.14504 17.6838 -6.14365 15.9788 -5.85534L9.29871 -4.58844C9.29871 -4.58844 10.951 5.94731 10.4525 10.5894C10.2359 12.6048 9.53336 17.2787 9.53336 17.2787C9.53336 17.2787 11.605 19.4105 18.5544 19.4105C25.5038 19.4105 27.3977 18.2171 27.3977 18.2171C27.3977 18.2171 26.7868 12.6131 26.6965 10.588C26.5313 6.89541 26.6188 1.2512 26.816 -2.20851V-2.20712Z" fill="#F79327"/>
<path d="M5.04447 17.8346C3.59488 17.4465 2.73401 15.9579 3.12279 14.5108L5.98309 4.14551L11.2344 5.55101L8.37407 15.9163C7.9853 17.3634 6.49405 18.2228 5.04447 17.8346Z" fill="url(#paint4_linear_1326_8166)"/>
<path d="M4.31689 10.1806C4.31689 10.1806 5.00836 9.52081 6.83562 9.58457C8.73925 9.6511 9.92364 10.297 9.92364 10.297L11.233 5.55101L5.9817 4.14551L4.31689 10.1792V10.1806Z" fill="url(#paint5_linear_1326_8166)"/>
<path d="M10.7109 9.33044L3.48376 8.44749L6.41488 -1.86926C6.85781 -3.78624 8.77254 -4.98106 10.6928 -4.53889C12.6131 -4.09673 13.81 -2.18529 13.3671 -0.268314L10.7123 9.33044H10.7109Z" fill="#F79327"/>
<path d="M13.6002 74.0459C9.59999 73.9059 6.44116 70.5252 6.5814 66.5318L7.58111 37.9712C7.72135 33.9778 11.1079 30.8245 15.1081 30.9644C19.1084 31.1044 22.2672 34.4851 22.127 38.4785L21.1273 67.0391C20.987 71.0325 17.6005 74.1859 13.6002 74.0459Z" fill="#28BBB0"/>
<path d="M14.4473 74.0459C10.447 73.9059 7.28821 70.5252 7.42845 66.5318L8.42816 37.9712C8.5684 33.9778 11.9549 30.8245 15.9552 30.9644C19.9554 31.1044 23.1143 34.4851 22.974 38.4785L21.9743 67.0391C21.8341 71.0325 18.4475 74.1859 14.4473 74.0459Z" fill="#59C5C4"/>
<path d="M22.5586 43.4031L21.0535 43.3421C19.8025 43.2908 18.8222 42.229 18.8722 40.9802C18.9236 39.7313 19.9872 38.7527 21.2382 38.8026L22.7433 38.8636C23.9943 38.9149 24.9746 39.9766 24.9246 41.2255C24.8733 42.4744 23.8097 43.453 22.5586 43.4031Z" fill="#8D8493"/>
<path d="M22.1116 41.0776C22.0727 42.0201 21.4187 42.7589 20.6495 42.7271C19.8803 42.6966 19.2888 41.9065 19.3263 40.9639C19.3638 40.0214 20.0191 39.2826 20.7884 39.3145C21.5576 39.3464 22.1491 40.135 22.1116 41.0776Z" fill="#545571"/>
<path d="M21.3951 41.0477C21.377 41.5037 21.0591 41.8627 20.687 41.8474C20.3149 41.8322 20.0274 41.4496 20.0455 40.9936C20.0635 40.5376 20.3815 40.1786 20.7536 40.1938C21.1257 40.2091 21.4132 40.5916 21.3951 41.0477Z" fill="#8D8493"/>
<path d="M20.5579 40.1675L14.5596 39.9236C14.0931 39.9042 13.6988 40.2673 13.6793 40.7331C13.6599 41.1988 14.0237 41.5925 14.4902 41.6119L16.1286 41.6784L16.0856 42.7471C16.0564 43.4651 16.6216 44.0777 17.3408 44.1068C18.06 44.136 18.6737 43.5718 18.7029 42.8538L18.7459 41.7851L20.4885 41.8558C20.955 41.8752 21.3494 41.5121 21.3688 41.045C21.3883 40.5778 21.0245 40.1856 20.5565 40.1662L20.5579 40.1675Z" fill="white"/>
<path d="M13.3335 43.0291L11.8284 42.9681C10.5774 42.9168 9.59711 41.855 9.64709 40.6061C9.69847 39.3573 10.7621 38.3787 12.0131 38.4286L13.5182 38.4896C14.7693 38.5409 15.7495 39.6026 15.6995 40.8515C15.6482 42.1004 14.5846 43.079 13.3335 43.0291Z" fill="#8D8493"/>
<path d="M12.8865 40.7036C12.8476 41.6461 12.1936 42.3849 11.4244 42.353C10.6552 42.3225 10.0637 41.5325 10.1012 40.5899C10.1401 39.6474 10.794 38.9086 11.5633 38.9404C12.3325 38.9709 12.924 39.761 12.8865 40.7036Z" fill="#545571"/>
<path d="M12.1685 40.6736C12.1505 41.1297 11.8325 41.4887 11.4604 41.4734C11.0883 41.4582 10.8009 41.0756 10.8189 40.6196C10.837 40.1636 11.1549 39.8046 11.5271 39.8198C11.8992 39.8351 12.1866 40.2176 12.1685 40.6736Z" fill="#8D8493"/>
<path d="M22.6032 62.6185L21.0995 62.5548C19.8498 62.5021 18.7821 63.4793 18.7293 64.7268C18.6766 65.9743 19.6555 67.0402 20.9051 67.0929L22.4088 67.1566C23.6585 67.2093 24.7262 66.2321 24.779 64.9846C24.8318 63.7371 23.8529 62.6712 22.6032 62.6185Z" fill="#8D8493"/>
<path d="M21.9646 64.9008C22.0049 63.9582 21.4147 63.1681 20.6455 63.1349C19.8763 63.1016 19.2209 63.839 19.1807 64.7816C19.1404 65.7241 19.7305 66.5142 20.4997 66.5475C21.269 66.5807 21.9243 65.8433 21.9646 64.9008Z" fill="#545571"/>
<path d="M21.2481 64.8694C21.2675 64.4133 20.9815 64.0294 20.6094 64.0141C20.2373 63.9989 19.9193 64.3551 19.8999 64.8125C19.8804 65.2686 20.1665 65.6525 20.5386 65.6678C20.9107 65.683 21.2286 65.3268 21.2481 64.8694Z" fill="#8D8493"/>
<path d="M20.3415 65.6756L14.3432 65.4205C13.8766 65.4011 13.5129 65.0061 13.5337 64.5404C13.5531 64.0746 13.9488 63.7115 14.4154 63.7323L16.0538 63.8016L16.0996 62.7329C16.1302 62.0149 16.7439 61.4521 17.4631 61.4826C18.1824 61.5131 18.7461 62.1258 18.7155 62.8438L18.6697 63.9125L20.4123 63.9859C20.8788 64.0053 21.2426 64.4004 21.2218 64.8661C21.2023 65.3318 20.8066 65.695 20.3401 65.6742L20.3415 65.6756Z" fill="white"/>
<path d="M13.3781 62.226L11.8744 62.1622C10.6247 62.1095 9.557 63.0867 9.50423 64.3342C9.45147 65.5817 10.4304 66.6476 11.68 66.7003L13.1837 66.764C14.4334 66.8167 15.5011 65.8395 15.5539 64.592C15.6067 63.3445 14.6278 62.2786 13.3781 62.226Z" fill="#8D8493"/>
<path d="M12.7394 64.5072C12.7796 63.5647 12.1895 62.7746 11.4203 62.7413C10.6511 62.7081 9.9957 63.4455 9.95544 64.388C9.91517 65.3306 10.5053 66.1206 11.2745 66.1539C12.0437 66.1872 12.6991 65.4498 12.7394 64.5072Z" fill="#545571"/>
<path d="M12.023 64.4768C12.0424 64.0208 11.7564 63.6368 11.3843 63.6216C11.0122 63.6063 10.6942 63.9625 10.6748 64.42C10.6553 64.8774 10.9414 65.2599 11.3135 65.2752C11.6856 65.2904 12.0036 64.9342 12.023 64.4768Z" fill="#8D8493"/>
<path d="M19.4944 33.2292L18.8321 31.2706C18.7821 31.1209 18.678 30.9948 18.5419 30.9144L16.53 29.732L16.5369 29.7292L12.0104 27.4699L8.34204 14.6942C7.86023 13.2748 6.31762 12.5139 4.89441 12.9948C3.47259 13.4758 2.71031 15.0158 3.19212 16.4365L8.48922 29.0459C9.50421 31.929 10.2693 31.4744 11.2357 31.7252L10.8413 32.3615C10.6719 32.6345 10.6942 32.9852 10.8969 33.2361L11.555 34.0483C11.6814 34.2036 11.8785 34.284 12.0771 34.259L12.4825 34.2105C12.7658 34.1772 13.0143 34.0068 13.149 33.7559L13.3976 33.2929L13.292 33.9097L14.1237 33.5854C14.3709 33.4884 14.5708 33.2998 14.6805 33.0587L14.9499 32.4654L14.7916 33.2929L15.6483 33.0406C15.9732 32.945 16.2287 32.6955 16.3314 32.3739L16.5383 31.7266L17.7727 32.2908L18.5405 33.6561C18.6336 33.821 18.8085 33.9236 18.9987 33.9236C19.3584 33.9236 19.6111 33.5715 19.4958 33.2319L19.4944 33.2292Z" fill="url(#paint6_linear_1326_8166)"/>
<path d="M10.4845 9.30238L11.1121 3.84668" stroke="#93596F" stroke-width="0.64" stroke-linecap="round" stroke-linejoin="round"/>
<path d="M26.6327 7.57133V3.05957" stroke="#93596F" stroke-width="0.64" stroke-linecap="round" stroke-linejoin="round"/>
</g>
<defs>
<linearGradient id="paint0_linear_1326_8166" x1="5.65393" y1="43.8832" x2="18.0101" y2="43.8832" gradientUnits="userSpaceOnUse">
<stop stop-color="#F8A796"/>
<stop offset="0.43" stop-color="#F8AB99"/>
<stop offset="0.53" stop-color="#F7A391"/>
<stop offset="0.77" stop-color="#F69785"/>
<stop offset="1" stop-color="#F69481"/>
</linearGradient>
<linearGradient id="paint1_linear_1326_8166" x1="7.97693" y1="32.0434" x2="17.888" y2="32.0434" gradientUnits="userSpaceOnUse">
<stop stop-color="#F8A796"/>
<stop offset="0.43" stop-color="#F8AB99"/>
<stop offset="0.53" stop-color="#F7A391"/>
<stop offset="0.77" stop-color="#F69785"/>
<stop offset="1" stop-color="#F69481"/>
</linearGradient>
<linearGradient id="paint2_linear_1326_8166" x1="23.3822" y1="7.35469" x2="50.2788" y2="7.35469" gradientUnits="userSpaceOnUse">
<stop stop-color="#F8A796"/>
<stop offset="0.43" stop-color="#F8AB99"/>
<stop offset="0.53" stop-color="#F7A391"/>
<stop offset="0.77" stop-color="#F69785"/>
<stop offset="1" stop-color="#F69481"/>
</linearGradient>
<linearGradient id="paint3_linear_1326_8166" x1="18.753" y1="43.8221" x2="29.9957" y2="43.8221" gradientUnits="userSpaceOnUse">
<stop stop-color="#F8A796"/>
<stop offset="0.43" stop-color="#F8AB99"/>
<stop offset="0.53" stop-color="#F7A391"/>
<stop offset="0.77" stop-color="#F69785"/>
<stop offset="1" stop-color="#F69481"/>
</linearGradient>
<linearGradient id="paint4_linear_1326_8166" x1="3.02976" y1="11.0372" x2="11.2344" y2="11.0372" gradientUnits="userSpaceOnUse">
<stop stop-color="#F8A796"/>
<stop offset="0.43" stop-color="#F8AB99"/>
<stop offset="0.53" stop-color="#F7A391"/>
<stop offset="0.77" stop-color="#F69785"/>
<stop offset="1" stop-color="#F69481"/>
</linearGradient>
<linearGradient id="paint5_linear_1326_8166" x1="4.31689" y1="7.22127" x2="11.2344" y2="7.22127" gradientUnits="userSpaceOnUse">
<stop stop-color="#F8A796"/>
<stop offset="0.43" stop-color="#F8AB99"/>
<stop offset="0.53" stop-color="#F7A391"/>
<stop offset="0.77" stop-color="#F69785"/>
<stop offset="1" stop-color="#F69481"/>
</linearGradient>
<linearGradient id="paint6_linear_1326_8166" x1="3.04494" y1="23.5556" x2="19.5222" y2="23.5556" gradientUnits="userSpaceOnUse">
<stop stop-color="#F8A796"/>
<stop offset="0.43" stop-color="#F8AB99"/>
<stop offset="0.53" stop-color="#F7A391"/>
<stop offset="0.77" stop-color="#F69785"/>
<stop offset="1" stop-color="#F69481"/>
</linearGradient>
</defs>
</svg>
