<svg width="22" height="50" viewBox="0 0 22 50" fill="none" xmlns="http://www.w3.org/2000/svg">
<g style="mix-blend-mode:luminosity" opacity="0.15">
<path d="M12.2267 8.06154C12.1678 7.88639 12.1664 6.42301 12.1664 6.42301L8.95203 6.31738C8.95203 6.31738 9.22051 9.51423 9.18167 9.66531" fill="url(#paint0_linear_1326_8389)"/>
<g style="mix-blend-mode:multiply" opacity="0.6">
<path d="M8.92792 6.9281C8.92792 6.9281 9.30486 7.03372 9.39592 7.19617C9.48697 7.35862 10.0728 8.58067 10.5348 8.60006C10.9968 8.61944 11.296 7.96965 11.5304 7.8199C11.7647 7.67015 12.1892 7.65945 12.1892 7.65945L12.1664 6.42203L8.95202 6.31641L8.92725 6.9281H8.92792Z" fill="#8D307F"/>
</g>
<path style="mix-blend-mode:multiply" opacity="0.6" d="M11.138 7.15825L11.0188 8.37628C11.0188 8.37628 11.3054 8.05539 11.452 7.82141C11.5986 7.58743 11.8718 6.6709 11.8718 6.6709L11.1373 7.15825H11.138Z" fill="url(#paint1_linear_1326_8389)"/>
<path d="M12.8159 3.90981C12.8159 3.90981 13.0944 3.48664 13.2832 3.48731C13.3984 3.48731 13.6756 3.72864 13.6722 3.95861C13.6682 4.26613 13.395 4.61576 13.3274 4.79559C13.2591 4.97475 13.083 5.20873 12.9659 5.23146C12.8487 5.25419 12.696 5.03291 12.696 5.03291C12.696 5.03291 12.753 4.18925 12.8159 3.90981Z" fill="url(#paint2_linear_1326_8389)"/>
<path style="mix-blend-mode:multiply" opacity="0.6" d="M12.8368 4.36043C12.8368 4.36043 13.2941 3.79688 13.4601 3.79688C13.6262 3.79688 13.6262 4.11776 13.5592 4.30027C13.513 4.42662 13.422 4.60979 13.422 4.60979C13.422 4.60979 13.4936 4.41325 13.5023 4.26617C13.5157 4.03955 13.4655 3.87509 13.4079 3.87576C13.3028 3.87643 13.2198 4.02016 13.207 4.07097C13.1937 4.12177 13.2901 4.34506 13.2646 4.50082C13.2392 4.65659 13.1454 4.71608 13.1146 4.6987C13.0832 4.68199 13.1314 4.50617 13.1033 4.444C13.0751 4.38183 12.9928 4.29158 12.9446 4.31096C12.8964 4.33102 12.8368 4.35977 12.8368 4.35977V4.36043Z" fill="url(#paint3_linear_1326_8389)"/>
<path style="mix-blend-mode:multiply" opacity="0.6" d="M12.8368 4.36127C12.8368 4.36127 12.9493 4.29375 12.9834 4.31581C13.0176 4.3372 13.1046 4.41542 13.1086 4.46422C13.112 4.51302 13.0812 4.65341 13.1086 4.67748C13.1361 4.70154 13.2358 4.54444 13.2398 4.40472C13.2445 4.26567 13.1662 4.10456 13.1662 4.08584C13.1662 4.06712 13.1843 3.97754 13.1843 3.97754C13.1843 3.97754 12.9185 4.22823 12.8368 4.3606V4.36127Z" fill="url(#paint4_linear_1326_8389)"/>
<path d="M8.44584 3.90981C8.44584 3.90981 8.16731 3.48664 7.9785 3.48731C7.86335 3.48731 7.58616 3.72864 7.58951 3.95861C7.59352 4.26613 7.86669 4.61576 7.93432 4.79559C8.00261 4.97475 8.17869 5.20873 8.29586 5.23146C8.41303 5.25419 8.56568 5.03291 8.56568 5.03291C8.56568 5.03291 8.50877 4.18925 8.44584 3.90981Z" fill="url(#paint5_linear_1326_8389)"/>
<path style="mix-blend-mode:multiply" opacity="0.6" d="M8.42497 4.36043C8.42497 4.36043 7.96769 3.79688 7.80164 3.79688C7.6356 3.79688 7.6356 4.11776 7.70255 4.30027C7.74875 4.42662 7.83981 4.60979 7.83981 4.60979C7.83981 4.60979 7.76817 4.41325 7.75946 4.26617C7.74607 4.03955 7.79629 3.87509 7.85387 3.87576C7.95898 3.87643 8.042 4.02016 8.05472 4.07097C8.06811 4.12177 7.9717 4.34506 7.99714 4.50082C8.02259 4.65659 8.11632 4.71608 8.14712 4.6987C8.17859 4.68199 8.13038 4.50617 8.1585 4.444C8.18662 4.38183 8.26897 4.29158 8.31718 4.31096C8.36539 4.33102 8.42497 4.35977 8.42497 4.35977V4.36043Z" fill="url(#paint6_linear_1326_8389)"/>
<path style="mix-blend-mode:multiply" opacity="0.6" d="M8.42511 4.36127C8.42511 4.36127 8.31263 4.29375 8.27848 4.31581C8.24434 4.3372 8.1573 4.41542 8.15328 4.46422C8.14926 4.51302 8.18073 4.65341 8.15328 4.67748C8.12583 4.70154 8.02607 4.54444 8.02205 4.40472C8.01737 4.26567 8.0957 4.10456 8.0957 4.08584C8.0957 4.06712 8.07762 3.97754 8.07762 3.97754C8.07762 3.97754 8.34343 4.22823 8.42511 4.3606V4.36127Z" fill="url(#paint7_linear_1326_8389)"/>
<path d="M12.8774 3.92476C12.8426 4.30581 12.7689 4.66146 12.7515 5.0599C12.7341 5.45833 12.7013 5.78256 12.639 5.93097C12.6109 5.99782 12.5614 6.06668 12.4991 6.13687C12.3217 6.33676 12.0398 6.54601 11.849 6.74255C11.7767 6.81676 11.7017 6.8796 11.6314 6.93241C11.6314 6.93241 11.6307 6.93241 11.63 6.93308C11.4881 7.0387 11.3616 7.10154 11.302 7.12561C11.1199 7.20048 10.6478 7.20048 10.6478 7.20048C10.6478 7.20048 10.1758 7.20048 9.9937 7.12561C9.90399 7.08884 9.6643 6.96583 9.4467 6.74255C9.22107 6.51057 8.86889 6.26055 8.71222 6.03058C8.68879 5.99715 8.67004 5.96373 8.65598 5.93097C8.59372 5.78256 8.56024 5.45833 8.5435 5.0599C8.52609 4.66146 8.45245 4.30581 8.41763 3.92476C8.38281 3.54303 8.33996 2.22205 8.45245 1.91854C8.5656 1.61503 9.90198 0.800781 10.6485 0.800781C11.1721 0.800781 11.9876 1.20189 12.4649 1.54618C12.6678 1.69258 12.8104 1.82829 12.8439 1.91854C12.957 2.22205 12.9135 3.5437 12.8787 3.92476H12.8774Z" fill="url(#paint8_linear_1326_8389)"/>
<path d="M10.232 0.349061C10.232 0.349061 10.5286 0.175247 10.9551 0.192628C11.3822 0.210009 11.8663 0.439979 11.8663 0.439979L10.694 1.07106L10.165 0.877857L10.2313 0.349061H10.232Z" fill="url(#paint9_linear_1326_8389)"/>
<path d="M13.1839 2.22915L13.0661 2.14492L12.8665 3.74602C12.8665 3.74602 12.9141 3.20452 12.8404 2.90502C12.7668 2.60553 12.7842 2.00654 12.7842 2.00654C12.7842 2.00654 12.3336 1.45969 11.9138 1.33401C11.9138 1.33401 11.3641 1.39886 10.5386 1.42961C9.71306 1.45969 9.23903 1.44699 9.23903 1.44699C9.23903 1.44699 8.68801 1.7505 8.51393 2.05467C8.51393 2.05467 8.51862 2.51461 8.50523 2.75728C8.49184 2.99995 8.37199 3.83159 8.37199 3.83159C8.37199 3.83159 8.37199 3.82824 8.37132 3.8229C8.36463 3.71861 8.29634 2.73455 8.22403 2.32809C8.22135 2.31339 8.21867 2.29935 8.21666 2.28464C8.20863 2.2325 8.20193 2.18035 8.19725 2.12821C8.19725 2.12687 8.19724 2.12553 8.19658 2.12353C8.17917 1.93634 8.18118 1.75117 8.18653 1.61479C8.18653 1.60543 8.1872 1.59607 8.18787 1.58671C8.18854 1.57802 8.18921 1.56933 8.18921 1.56064C8.18921 1.55328 8.18988 1.54526 8.19055 1.53858C8.19055 1.53122 8.19122 1.52387 8.19189 1.51718C8.19323 1.50114 8.1939 1.48576 8.19524 1.47239C8.19591 1.46504 8.19658 1.45769 8.19725 1.45167C8.19725 1.45033 8.19725 1.449 8.19725 1.44833C8.19725 1.44164 8.19858 1.43629 8.19858 1.43028C8.19992 1.41824 8.20059 1.40889 8.20126 1.40287C8.20126 1.40086 8.20126 1.39953 8.20126 1.39886C8.20126 1.39485 8.20193 1.39351 8.20193 1.39351L8.21666 1.39819L8.31843 1.59473C8.31843 1.59473 8.31843 1.59473 8.31977 1.59273C8.31977 1.59273 8.32111 1.59139 8.32178 1.59072C8.32178 1.59072 8.32245 1.59005 8.32312 1.58938C8.32513 1.58738 8.32713 1.58537 8.32981 1.58203C8.35927 1.54727 8.45367 1.43897 8.58892 1.29791C8.59628 1.28989 8.60365 1.28187 8.61101 1.27451C8.61302 1.27184 8.61503 1.26983 8.61704 1.26783C8.62909 1.25513 8.64382 1.23975 8.66056 1.22371C8.66458 1.21969 8.66926 1.21502 8.67395 1.21034C8.80451 1.0773 8.96386 0.925548 9.13526 0.781817C9.1366 0.78048 9.13727 0.779812 9.1386 0.779143C9.14463 0.774463 9.14999 0.769115 9.15668 0.764436C9.21828 0.71296 9.28121 0.662821 9.34549 0.615357C9.88647 0.212242 10.5058 0.00366459 10.5058 0.00366459H10.7863C10.7863 0.00366459 10.4609 0.540483 10.3893 0.876746C10.3987 0.855354 10.7147 0.157423 10.9731 0.00366459C10.9731 0.00366459 11.2235 -0.0290927 11.5034 0.101268C11.5034 0.101268 11.032 0.497698 10.9155 0.810563C10.935 0.794519 11.7109 0.146058 12.2774 0.484996C12.262 0.481653 12.1013 0.450902 11.948 0.468952C11.948 0.468952 12.1113 0.53714 12.3677 0.823934C12.4052 0.86605 12.4481 0.917526 12.493 0.975687C12.7554 1.31262 13.1123 1.88086 13.1839 2.22915Z" fill="url(#paint10_linear_1326_8389)"/>
<path d="M10.6162 1.42573C10.6162 1.42573 11.3333 -0.0216021 12.278 0.485802C12.278 0.485802 11.3815 0.416276 10.7481 1.42039L10.6162 1.4264V1.42573Z" fill="url(#paint11_linear_1326_8389)"/>
<path d="M10.9724 0.00488281C10.9724 0.00488281 10.3946 0.610558 10.3096 1.42682H10.6155C10.6155 1.42682 10.6832 0.630614 11.2978 0.0316235C11.2978 0.0316235 11.1592 0.00488281 10.9724 0.00488281Z" fill="url(#paint12_linear_1326_8389)"/>
<path d="M10.5058 0.00488281C10.5058 0.00488281 10.0451 0.633956 10.0083 1.44487C10.0083 1.44487 10.0953 0.700808 10.6162 0.00488281H10.5058Z" fill="url(#paint13_linear_1326_8389)"/>
<path d="M8.2663 1.57508C8.2663 1.57508 8.41494 1.81842 8.55487 1.9909L8.51403 2.05307V2.22889C8.51403 2.22889 8.31585 2.1353 8.20203 1.91536V1.39258L8.2663 1.57575V1.57508Z" fill="url(#paint14_linear_1326_8389)"/>
<path d="M9.05958 0.840066C9.05958 0.840066 8.83462 1.1068 8.77771 1.76195L8.88751 1.67504C8.88751 1.67504 8.86877 1.11683 9.22429 0.707031L9.05958 0.840066Z" fill="url(#paint15_linear_1326_8389)"/>
<path d="M11.2349 1.39231C11.2349 1.39231 11.6802 0.830085 12.4347 0.817383L12.3959 0.857494L12.665 0.921671C12.665 0.921671 12.2459 1.01058 11.9132 1.33348L11.2343 1.39231H11.2349Z" fill="url(#paint16_linear_1326_8389)"/>
<g style="mix-blend-mode:multiply" opacity="0.6">
<path d="M11.2877 1.33294H11.9137C11.9137 1.33294 11.364 1.39779 10.5385 1.42854C9.71297 1.45862 9.23894 1.44592 9.23894 1.44592C9.23894 1.44592 8.68792 1.74942 8.51384 2.0536C8.51384 2.0536 8.51853 2.51354 8.50514 2.75621C8.49175 2.99888 8.3719 3.83051 8.3719 3.83051C8.3719 3.83051 8.3719 3.82717 8.37123 3.82182C8.36119 3.7162 8.26612 2.72212 8.21657 2.28357C8.20921 2.21672 8.20251 2.16324 8.19715 2.12714C8.19715 2.1258 8.19715 2.12446 8.19648 2.12246C8.17372 1.95733 8.17908 1.74007 8.18778 1.58564C8.18845 1.57695 8.18912 1.56826 8.18912 1.55957C8.18912 1.55221 8.18979 1.54419 8.19046 1.53751C8.19046 1.53015 8.19113 1.5228 8.1918 1.51611C8.19314 1.50007 8.19381 1.48469 8.19515 1.47132C8.19581 1.46397 8.19648 1.45661 8.19715 1.4506C8.19715 1.44926 8.19715 1.44792 8.19715 1.44726C8.19715 1.44057 8.19849 1.43522 8.19849 1.42921C8.19983 1.41717 8.2005 1.40781 8.20117 1.4018C8.20117 1.39979 8.20117 1.39845 8.20117 1.39779C8.20117 1.39377 8.20184 1.39244 8.20184 1.39244L8.21657 1.39712L8.31834 1.59366C8.31834 1.59366 8.31834 1.59366 8.31968 1.59165C8.31968 1.59165 8.32102 1.59032 8.32169 1.58965C8.32169 1.58965 8.32236 1.58898 8.32303 1.58831C8.34981 1.5589 8.49509 1.39645 8.61092 1.27344C8.61293 1.27077 8.61494 1.26876 8.61695 1.26676C8.629 1.25405 8.64373 1.23868 8.66047 1.22263C8.79571 1.08826 9.05884 0.850271 9.1345 0.781414C9.13584 0.780077 9.1365 0.779408 9.13784 0.77874C9.14923 0.768712 9.15592 0.762695 9.15592 0.762695V0.764701C9.12445 1.1003 9.22555 1.31155 9.22555 1.31155C9.81943 1.36169 11.2884 1.33361 11.2884 1.33361L11.2877 1.33294Z" fill="#8D307F"/>
</g>
<g style="mix-blend-mode:multiply" opacity="0.6">
<path d="M13.1839 2.22905L13.0661 2.14482L12.8666 3.74592C12.8666 3.74592 12.9141 3.20442 12.8404 2.90492C12.7668 2.60543 12.7842 2.00644 12.7842 2.00644C12.7842 2.00644 12.3336 1.45959 11.9138 1.33391L11.9506 1.29982L12.4923 0.975586H12.493C12.7554 1.31319 13.1123 1.88142 13.1839 2.22972V2.22905Z" fill="#8D307F"/>
</g>
<path d="M12.4012 1.62423C12.4012 1.62423 12.5492 1.56741 12.7534 1.5761C12.9576 1.58479 13.0534 1.76061 13.0534 1.76061C13.0534 1.76061 12.811 1.67905 12.4849 1.6971L12.4012 1.62423Z" fill="url(#paint17_linear_1326_8389)"/>
<path d="M8.72355 1.80957C8.72355 1.80957 8.34527 1.44456 8.55483 1.0127C8.55483 1.0127 8.6171 1.26807 8.7818 1.72065L8.72355 1.8089V1.80957Z" fill="url(#paint18_linear_1326_8389)"/>
<path d="M4.29359 51.8355C4.38398 48.4929 4.18714 40.6345 4.14965 40.1077C4.11148 39.5703 4.47236 33.9079 4.73013 30.0058C4.86939 27.9013 4.97785 26.3096 4.97785 26.3096H14.6874L14.6573 29.5372L14.903 39.3891C14.903 39.3891 16.1376 47.6646 16.5641 51.2071C15.0295 51.8415 13.2131 51.9405 11.556 51.7459L10.3555 39.8677L9.21531 30.4684L9.12091 29.8815L9.09212 30.4718L9.20594 39.7795L9.5936 52.361C7.79858 52.7293 6.02768 52.367 4.29359 51.8348V51.8355Z" fill="#2A2A2C"/>
<path d="M4.7301 30.0061C5.65071 30.2535 7.13439 30.5262 9.09142 30.4727L9.12021 29.8824L9.21462 30.4694C10.7559 30.4172 12.5844 30.1619 14.6566 29.5381L14.6599 29.1364L14.6619 28.8803L14.6653 28.4953L14.6686 28.2299L14.686 26.3105H4.9785C4.9785 26.3105 4.939 26.8895 4.87673 27.8107C4.8707 27.9003 4.86535 27.9939 4.85865 28.0901C4.84727 28.2533 4.83589 28.4257 4.82384 28.6056C4.81848 28.6891 4.81245 28.7754 4.8071 28.8623C4.783 29.2199 4.75755 29.6043 4.73077 30.0068L4.7301 30.0061Z" fill="#2A2A2C"/>
<path d="M13.142 26.3105C13.2913 27.2431 13.8189 28.1089 14.6665 28.4953L14.6698 28.2299C13.9615 27.8602 13.5149 27.1201 13.379 26.3105H13.1426H13.142Z" fill="#2A2A2C"/>
<path d="M12.1773 26.3105C12.5054 27.6035 13.4374 28.6504 14.6599 29.1357L14.6619 28.8797C13.5666 28.4137 12.741 27.4758 12.4217 26.3105H12.1766H12.1773Z" fill="#2A2A2C"/>
<path d="M4.85779 28.0901C5.52598 27.7599 6.01741 27.0526 6.15869 26.3105H5.91565C5.78643 26.9189 5.40279 27.4992 4.87587 27.8107C4.86984 27.9003 4.86448 27.9939 4.85779 28.0901Z" fill="#2A2A2C"/>
<path d="M4.80633 28.8623C5.90972 28.4719 6.69106 27.4764 6.81091 26.3105H6.57791C6.46543 27.3401 5.78117 28.2272 4.8224 28.6056C4.81705 28.6891 4.81102 28.7754 4.80566 28.8623H4.80633Z" fill="#2A2A2C"/>
<path d="M4.88135 27.0418V27.0438L7.71078 27.2203L8.35085 26.3097L9.5935 27.3379L14.6277 27.6528H14.6404C14.6404 27.6528 17.4645 10.9372 13.9749 8.46572C13.6964 8.26918 13.383 8.16222 13.0295 8.16222L12.2582 7.34863L10.5268 8.66828L9.46763 9.53535L9.10006 8.16155C9.10006 8.16155 8.79676 8.60411 8.69298 8.95909C8.69298 8.95909 8.68562 8.96042 8.67156 8.96243C8.51824 8.98783 7.56549 9.16833 6.73728 9.88832C6.7085 9.91373 6.67904 9.93913 6.65092 9.96587C6.40185 10.1958 6.16751 10.4773 5.97268 10.8202C4.99785 12.541 4.8867 26.3445 4.88202 27.0177C4.88135 27.0291 4.88135 27.0364 4.88135 27.0411V27.0418Z" fill="#3C3148"/>
<path d="M9.467 9.53613C9.467 9.53613 8.14468 24.0182 8.35022 26.3092C8.35022 26.3092 7.85209 16.716 9.467 9.53613Z" fill="#261D30"/>
<path d="M9.09935 8.16278L9.46692 9.53658L8.6106 10.8208C8.61729 9.86081 8.65211 9.0967 8.69228 8.95965C8.79606 8.60534 9.09868 8.16211 9.09868 8.16211L9.09935 8.16278Z" fill="#261D30"/>
<path d="M9.46692 9.53699L10.6861 11.0639L13.0288 8.16319L12.2575 7.34961L9.46692 9.53699Z" fill="#261D30"/>
<path d="M13.3461 25.8635C13.3461 25.8635 11.9803 25.4049 11.7995 25.7893C11.6181 26.1737 12.6893 26.6376 12.6893 26.6376L13.3461 25.8635Z" fill="#F69787"/>
<path d="M10.3681 28.0246C10.5756 28.2773 12.149 26.6602 12.149 26.6602L12.7241 26.9102L12.1296 27.6476L11.8819 29.0047C11.8819 29.0047 12.1022 29.1584 12.382 29.3309C12.4168 29.353 12.453 29.3744 12.4891 29.3958C12.6579 29.4967 12.8406 29.5983 13.006 29.6739C13.0214 29.6819 13.0382 29.6886 13.0536 29.6959C13.1372 29.7314 13.2149 29.7601 13.2825 29.7782C13.3582 29.7975 13.4211 29.8029 13.4673 29.7902L13.8858 28.7995C13.8858 28.7995 15.3112 28.3856 15.4692 28.2252C15.5315 28.161 15.6172 27.7793 15.6975 27.3421C15.7357 27.1322 15.7732 26.9096 15.806 26.703L15.2235 26.3841L13.9039 25.6621C13.7579 25.6735 13.5651 25.6929 13.3508 25.7209C13.2457 25.7343 13.1352 25.7504 13.0228 25.7691C12.6157 25.8373 12.1825 25.9395 11.8671 26.0913C11.7332 26.1555 11.6214 26.2283 11.5424 26.3119C10.9934 26.8875 10.1605 27.7726 10.3674 28.0246H10.3681Z" fill="url(#paint19_linear_1326_8389)"/>
<path d="M13.0068 29.6722C13.0222 29.6803 13.0389 29.6869 13.0543 29.6943C13.0664 29.6508 13.0811 29.594 13.0999 29.5258C13.142 29.3714 13.203 29.1635 13.2733 28.9402C13.3456 28.7176 13.4239 28.5204 13.4989 28.3793C13.5183 28.3439 13.5364 28.3118 13.5518 28.2837C13.5699 28.257 13.5853 28.2329 13.5987 28.2142C13.6234 28.1748 13.6382 28.1514 13.6382 28.1514C13.6382 28.1514 13.6147 28.1647 13.5732 28.1921C13.5525 28.2055 13.527 28.2222 13.4982 28.243C13.4715 28.2657 13.442 28.2918 13.4092 28.3218C13.2813 28.4428 13.1367 28.6467 13.0577 28.8914C12.9807 29.1361 12.9747 29.3627 12.9874 29.5225C12.9927 29.5813 13.0001 29.6315 13.0068 29.6709V29.6722Z" fill="#F47D6F"/>
<path d="M12.3828 29.3298C12.4176 29.3519 12.4538 29.3733 12.49 29.3947C12.4933 29.386 12.4953 29.3766 12.498 29.3679C12.5408 29.2135 12.6011 29.0056 12.6721 28.7823C12.7437 28.559 12.822 28.3625 12.8977 28.2214C12.9171 28.186 12.9339 28.1539 12.9499 28.1265C12.968 28.0991 12.9841 28.0757 12.9961 28.0563C13.0216 28.0162 13.0363 27.9941 13.0363 27.9941C13.0363 27.9941 13.0135 28.0075 12.972 28.0342C12.9519 28.0476 12.9258 28.0643 12.897 28.0857C12.8703 28.1078 12.8401 28.1345 12.808 28.1646C12.6794 28.2863 12.5355 28.4908 12.4565 28.7349C12.3848 28.9615 12.3741 29.1734 12.3835 29.3298H12.3828Z" fill="#F47D6F"/>
<path d="M13.2834 29.7769C13.359 29.7963 13.422 29.8016 13.4682 29.7889L13.8866 28.7982C13.8866 28.7982 15.3121 28.3843 15.4701 28.2239C15.5323 28.1597 15.618 27.778 15.6984 27.3408C15.7365 27.1309 15.774 26.9083 15.8068 26.7017L15.2244 26.3828C15.2023 26.5753 15.1768 26.7719 15.1453 26.9591C15.0603 27.4798 14.9398 27.9291 14.7744 28.026C14.3372 28.2821 13.6007 28.6424 13.6007 28.6424L13.2827 29.7769H13.2834Z" fill="#F69787"/>
<path d="M13.4226 25.4457L13.8076 25.7546L15.231 26.8556L15.8423 27.3283C15.8423 27.3283 22.555 20.2239 21.9631 18.056C21.3807 15.9214 14.5943 9.0604 14.3827 8.84781C14.3807 8.84581 14.3794 8.84447 14.3787 8.8438C14.3787 8.84247 14.3774 8.8418 14.3774 8.8418C14.3774 8.8418 14.3727 8.87054 14.364 8.92469C14.2696 9.53037 13.6797 13.2721 13.422 13.6852C13.274 13.9232 14.6525 15.295 15.9863 16.5364C17.1767 17.6441 18.3309 18.6483 18.3309 18.6483C17.4626 19.3963 13.4213 25.4457 13.4213 25.4457H13.4226Z" fill="#3C3148"/>
<path d="M19.9793 17.9382C19.9444 17.8921 19.8721 17.9075 19.8186 17.9289C19.5119 18.0499 19.2187 18.2056 18.9468 18.3915C18.8933 18.4282 18.8103 18.479 18.7292 18.5392L15.719 15.6445L15.7164 16.283C16.9068 17.39 18.3322 18.6482 18.3322 18.6482C17.4638 19.3969 13.4219 25.4456 13.4219 25.4456L13.8075 25.7545C14.8319 24.3199 17.5649 20.504 18.6449 19.1101C18.9763 19.312 19.3626 19.423 19.7503 19.427C19.6358 19.1542 19.3452 19.0058 19.0767 18.8801C19.3566 18.6228 19.6371 18.3654 19.917 18.1073C19.9659 18.0626 20.0181 17.9904 19.9786 17.9369L19.9793 17.9382Z" fill="#3C3148"/>
<path d="M2.60164 21.7718C2.60164 21.7718 4.28886 13.5959 4.88072 12.0556C5.1184 11.4366 5.46522 10.966 5.79463 10.6237C6.03767 10.371 6.27133 10.1878 6.44541 10.0681C6.62284 9.94647 6.73733 9.88965 6.73733 9.88965C6.73733 9.88965 6.73532 10.0033 6.73063 10.2059C6.69582 11.9052 6.52576 19.8873 6.42399 20.0986C6.37377 20.2028 5.66072 21.7725 4.88139 23.4913V23.4933C4.85996 23.5394 4.83854 23.5862 4.81778 23.633L2.453 22.2371L2.60164 21.7725V21.7718Z" fill="#3C3148"/>
<path d="M4.3478 22.9089C4.31767 22.5152 5.63062 13.3919 6.13411 11.6484C5.7652 14.517 4.88142 23.4905 4.88142 23.4905V23.4925C4.85999 23.5387 4.83857 23.5855 4.81781 23.6323L4.2467 23.2953C4.31567 23.1101 4.35383 22.9751 4.34847 22.9096L4.3478 22.9089Z" fill="#261D30"/>
<path d="M0.359253 16.5417L5.7704 16.3164L6.72916 24.1554L1.68358 24.112L0.359253 16.5417Z" fill="#EAE2CC"/>
<path d="M0.0487725 19.7042C0.111039 19.8285 0.216825 19.9248 0.331984 19.9796C0.464551 20.0438 0.599126 20.1133 0.735041 20.1628C0.748432 20.1675 0.761822 20.1722 0.775882 20.1768C0.839488 20.1989 0.903093 20.2156 0.966698 20.2256C0.990132 20.229 1.0129 20.2317 1.03566 20.2337C1.11333 20.239 1.19032 20.2317 1.25995 20.2076C1.37511 20.1688 1.39855 20.0024 1.30146 19.8834C1.17961 19.7343 1.02026 19.6193 0.858904 19.5417C0.759144 19.4943 0.421701 19.3806 0.201425 19.3913C0.036721 19.3987 -0.0637085 19.4756 0.0501116 19.7029L0.0487725 19.7042Z" fill="url(#paint20_linear_1326_8389)"/>
<path d="M0.408255 20.4634C0.470522 20.5877 0.575638 20.6833 0.690797 20.7395C0.776497 20.7803 0.863536 20.8237 0.951244 20.8632C0.985391 20.8792 1.02021 20.8939 1.05502 20.9066C1.14474 20.9427 1.23513 20.9715 1.32618 20.9855C1.34426 20.9882 1.36167 20.9902 1.37974 20.9915C1.46277 20.9989 1.54512 20.9915 1.61944 20.9668C1.73459 20.928 1.75736 20.7615 1.65961 20.6432C1.53842 20.4935 1.37907 20.3778 1.21705 20.3016C1.18156 20.2849 1.11595 20.2595 1.03561 20.2334C0.959948 20.21 0.87157 20.1859 0.784531 20.1712C0.767793 20.1679 0.751724 20.1652 0.735656 20.1632C0.481904 20.1258 0.258281 20.1646 0.409595 20.4634H0.408255Z" fill="url(#paint21_linear_1326_8389)"/>
<path d="M0.576187 21.1546C0.638453 21.279 0.743569 21.3745 0.858729 21.4307C0.965853 21.4828 1.07633 21.5377 1.18613 21.5838C1.22027 21.5978 1.25509 21.6119 1.28924 21.6226C1.35686 21.6473 1.42515 21.6667 1.49411 21.6774C1.53495 21.6834 1.5758 21.6867 1.61597 21.6861C1.67556 21.6861 1.7338 21.6767 1.7867 21.6587C1.90186 21.6199 1.92462 21.4541 1.82687 21.3351C1.70568 21.186 1.54634 21.0697 1.38431 20.9935C1.3823 20.9935 1.38163 20.9922 1.37962 20.9915C1.31468 20.9607 1.1647 20.9086 1.00736 20.8738C0.989287 20.8698 0.969871 20.8658 0.951124 20.8631C0.678625 20.813 0.4155 20.8364 0.575517 21.1546H0.576187Z" fill="url(#paint22_linear_1326_8389)"/>
<path d="M0.919718 21.8917C0.981984 22.0161 1.08777 22.113 1.20226 22.1678C1.21967 22.1765 1.23708 22.1845 1.25448 22.1932C1.4453 22.2861 1.6408 22.3837 1.83764 22.4138C1.93874 22.4299 2.04118 22.4265 2.13023 22.3958C2.24539 22.357 2.26815 22.1905 2.1704 22.0722C2.04922 21.9231 1.88987 21.8075 1.72784 21.7306C1.70374 21.7179 1.66424 21.7025 1.61536 21.6858C1.51292 21.6497 1.37031 21.6089 1.23774 21.5902C1.21967 21.5875 1.20293 21.5855 1.18552 21.5835C0.95922 21.5615 0.780456 21.6156 0.919048 21.891L0.919718 21.8917Z" fill="url(#paint23_linear_1326_8389)"/>
<path d="M0.0486467 19.7044C0.110913 19.8288 0.216699 19.925 0.331858 19.9798C0.464425 20.044 0.599001 20.1135 0.734915 20.163C0.481163 20.1256 0.25754 20.1644 0.408854 20.4632C0.47112 20.5875 0.576236 20.6831 0.691396 20.7393C0.777096 20.7801 0.864134 20.8235 0.951843 20.863C0.679344 20.8128 0.416219 20.8362 0.576236 21.1544C0.638503 21.2788 0.743619 21.3744 0.858778 21.4305C0.965903 21.4827 1.07638 21.5375 1.18618 21.5836C0.959877 21.5615 0.781113 21.6157 0.919706 21.8911C0.981972 22.0155 1.08776 22.1124 1.20225 22.1672C1.21965 22.1759 1.23706 22.1839 1.25447 22.1926C1.24778 22.1799 1.24175 22.1686 1.23639 22.1559C1.1922 22.0609 1.15471 21.9566 1.15739 21.8517C1.15873 21.7494 1.2076 21.6478 1.28862 21.6224L1.29397 21.621C1.27456 21.6104 1.25648 21.601 1.23773 21.5903C1.11989 21.5228 1.00206 21.4385 0.939791 21.3022C0.868821 21.1431 0.939791 20.9084 1.08441 20.9271C1.07437 20.9204 1.06432 20.9138 1.05495 20.9071C1.03888 20.897 1.02348 20.8857 1.00741 20.8743C0.902298 20.8008 0.800529 20.7152 0.738263 20.5922C0.668632 20.4545 0.678005 20.2573 0.775087 20.1784C0.777765 20.1771 0.780443 20.1737 0.783121 20.1724C0.792495 20.1657 0.802538 20.1603 0.81325 20.1563C0.605026 20.022 0.405506 19.8822 0.28566 19.6255C0.252853 19.5553 0.227411 19.4738 0.199961 19.3936C0.0352561 19.4009 -0.0651734 19.4778 0.0486467 19.7051V19.7044Z" fill="url(#paint24_linear_1326_8389)"/>
<path d="M12.7845 3.34755C12.7845 3.34755 12.6172 3.05942 12.4491 3.05073C12.413 3.04872 12.3681 3.05273 12.3172 3.06076C11.955 3.12025 11.2922 3.4017 11.2922 3.4017C11.2922 3.4017 11.1824 3.11691 11.1944 3.00059L11.2326 2.98388C11.2326 2.98388 11.2721 3.16371 11.2975 3.18978L11.2928 2.95714C11.2928 2.95714 11.8204 2.87758 12.1619 2.82811L12.2188 2.81942C12.259 2.8134 12.2958 2.80806 12.3279 2.80404C12.3982 2.79402 12.4431 2.78867 12.4458 2.78867C12.4598 2.79268 12.4906 2.80338 12.494 2.80404L12.4752 2.75391C12.4752 2.75391 12.6526 2.93909 12.7832 3.34755H12.7845Z" fill="url(#paint25_linear_1326_8389)"/>
<g style="mix-blend-mode:multiply" opacity="0.6">
<path d="M12.7845 3.34724C12.7845 3.34724 12.6171 3.05911 12.449 3.05042C12.4129 3.04841 12.368 3.05242 12.3171 3.06045L12.1625 2.82713L12.2194 2.81844C12.3124 2.83449 12.5709 3.02034 12.5709 3.02034C12.4999 2.88262 12.3379 2.80708 12.3285 2.80307C12.3988 2.79304 12.4437 2.78769 12.4464 2.78769C12.4604 2.7917 12.4912 2.8024 12.4946 2.80307L12.4758 2.75293C12.4758 2.75293 12.6532 2.93811 12.7838 3.34657L12.7845 3.34724Z" fill="#B23594"/>
</g>
<path d="M8.72583 3.34755C8.72583 3.34755 8.89321 3.05942 9.06126 3.05073C9.09742 3.04872 9.14228 3.05273 9.19316 3.06076C9.55538 3.12025 10.2182 3.4017 10.2182 3.4017C10.2182 3.4017 10.328 3.11691 10.316 3.00059L10.2778 2.98388C10.2778 2.98388 10.2383 3.16371 10.2129 3.18978L10.2175 2.95714C10.2175 2.95714 9.68995 2.87758 9.34849 2.82811L9.29158 2.81942C9.25141 2.8134 9.21459 2.80806 9.18245 2.80404C9.11215 2.79402 9.06729 2.78867 9.06461 2.78867C9.05055 2.79268 9.01975 2.80338 9.01641 2.80404L9.03515 2.75391C9.03515 2.75391 8.85773 2.93909 8.72717 3.34755H8.72583Z" fill="url(#paint26_linear_1326_8389)"/>
<g style="mix-blend-mode:multiply" opacity="0.6">
<path d="M8.72583 3.34724C8.72583 3.34724 8.89321 3.05911 9.06126 3.05042C9.09742 3.04841 9.14228 3.05242 9.19316 3.06045L9.34782 2.82713L9.29091 2.81844C9.19785 2.83449 8.93941 3.02034 8.93941 3.02034C9.01038 2.88262 9.17241 2.80708 9.18178 2.80307C9.11148 2.79304 9.06662 2.78769 9.06394 2.78769C9.04988 2.7917 9.01908 2.8024 9.01574 2.80307L9.03448 2.75293C9.03448 2.75293 8.85706 2.93811 8.7265 3.34657L8.72583 3.34724Z" fill="#B23594"/>
</g>
<path d="M11.3878 4.00435C11.3852 4.05181 11.7936 4.05516 12.044 4.02374C12.2944 3.99231 12.4102 3.80847 12.4169 3.759C12.4229 3.70953 12.3553 3.56981 12.0092 3.60123C11.663 3.63265 11.3952 3.89538 11.3885 4.00368L11.3878 4.00435Z" fill="url(#paint27_linear_1326_8389)"/>
<path d="M12.139 3.81005C12.1283 3.95177 12.0045 4.0574 11.8625 4.0467C11.7206 4.036 11.6148 3.91233 11.6255 3.7706C11.6362 3.62888 11.7601 3.52325 11.902 3.53395C12.044 3.54465 12.1497 3.66832 12.139 3.81005Z" fill="url(#paint28_linear_1326_8389)"/>
<path d="M12.1237 3.80869C12.1137 3.94172 11.9972 4.042 11.8633 4.0313C11.7294 4.02061 11.6296 3.90495 11.6403 3.77125C11.6504 3.63821 11.7669 3.53794 11.9008 3.54863C12.034 3.55866 12.1344 3.67498 12.1237 3.80869Z" fill="url(#paint29_linear_1326_8389)"/>
<path style="mix-blend-mode:multiply" d="M12.0387 3.80273C12.032 3.88897 11.9563 3.95381 11.8699 3.94713C11.7836 3.94044 11.7186 3.8649 11.7253 3.77866C11.732 3.69242 11.8077 3.62758 11.894 3.63426C11.9804 3.64095 12.0454 3.71649 12.0387 3.80273Z" fill="url(#paint30_linear_1326_8389)"/>
<path d="M11.3711 4.02605C11.3711 4.02605 11.5853 3.55408 11.9348 3.49458C12.2227 3.44511 12.435 3.70316 12.435 3.70316C12.435 3.70316 12.208 3.58684 11.9201 3.645C11.6322 3.70316 11.3718 4.02672 11.3718 4.02672L11.3711 4.02605Z" fill="#E56D5C"/>
<path d="M11.4133 3.94336L11.4862 4.03628C11.4862 4.03628 11.3811 4.02692 11.3718 4.02358C11.3624 4.02024 11.4133 3.94336 11.4133 3.94336Z" fill="#DE4E6B"/>
<path d="M11.6241 4.04358C11.6241 4.04358 11.971 4.07433 12.1691 4.00614C12.3834 3.93193 12.4169 3.75879 12.4169 3.75879C12.4169 3.75879 12.3633 3.93327 12.1377 3.99544C11.9402 4.05026 11.6241 4.04291 11.6241 4.04291V4.04358Z" fill="#DE4E6B"/>
<path d="M12.1149 3.8641C12.0922 3.87747 12.1819 3.89954 12.2542 3.88617C12.3191 3.87413 12.356 3.84137 12.3519 3.83335C12.3473 3.82533 12.2053 3.81062 12.1149 3.86344V3.8641Z" fill="white"/>
<path d="M12.06 3.87184C12.0359 3.8578 12.0038 3.86515 11.9998 3.87852C11.9958 3.89189 12.0245 3.91529 12.0399 3.91262C12.056 3.90994 12.0734 3.87919 12.06 3.87184Z" fill="white"/>
<g style="mix-blend-mode:multiply" opacity="0.6">
<path d="M11.3865 4.00038C11.3865 4.00038 11.8438 3.5645 12.4162 3.75971C12.4162 3.75971 12.2575 3.59191 11.9107 3.61799C11.5632 3.64406 11.3865 4.00038 11.3865 4.00038Z" fill="#B23594"/>
</g>
<path d="M11.3711 4.02588C11.3711 4.02588 11.5914 3.71302 11.9168 3.68293C12.2422 3.65218 12.4169 3.75981 12.4169 3.75981L12.4464 3.71034C12.4464 3.71034 12.1605 3.57062 11.8759 3.64082C11.5345 3.72572 11.3711 4.02588 11.3711 4.02588Z" fill="#290B39"/>
<path d="M11.3711 4.02583C11.3711 4.02583 11.5231 3.51776 11.7507 3.36133C11.7507 3.36133 11.4896 3.73904 11.3711 4.02583Z" fill="#DE4E6B"/>
<path d="M10.1492 4.00435C10.1519 4.05181 9.74344 4.05516 9.49304 4.02374C9.24263 3.99231 9.1268 3.80847 9.12011 3.759C9.11408 3.70953 9.1817 3.56981 9.52785 3.60123C9.874 3.63265 10.1418 3.89538 10.1485 4.00368L10.1492 4.00435Z" fill="url(#paint31_linear_1326_8389)"/>
<path d="M9.39857 3.81005C9.40929 3.95177 9.53315 4.0574 9.67509 4.0467C9.81703 4.036 9.92282 3.91233 9.9121 3.7706C9.90139 3.62888 9.77753 3.52325 9.63559 3.53395C9.49365 3.54465 9.38786 3.66832 9.39857 3.81005Z" fill="url(#paint32_linear_1326_8389)"/>
<path d="M9.41387 3.80869C9.42391 3.94173 9.54041 4.042 9.67432 4.03131C9.80755 4.02128 9.90798 3.90496 9.89727 3.77125C9.88656 3.63755 9.77073 3.53794 9.63682 3.54864C9.50359 3.55867 9.40316 3.67499 9.41387 3.80869Z" fill="url(#paint33_linear_1326_8389)"/>
<path style="mix-blend-mode:multiply" d="M9.49828 3.80273C9.50497 3.88897 9.58063 3.95381 9.667 3.94713C9.75337 3.94044 9.81831 3.8649 9.81162 3.77866C9.80492 3.69242 9.72927 3.62758 9.6429 3.63426C9.55653 3.64095 9.49158 3.71649 9.49828 3.80273Z" fill="url(#paint34_linear_1326_8389)"/>
<path d="M10.1665 4.02605C10.1665 4.02605 9.95229 3.55408 9.6028 3.49458C9.3149 3.44511 9.10266 3.70316 9.10266 3.70316C9.10266 3.70316 9.32963 3.58684 9.61753 3.645C9.90543 3.70316 10.1659 4.02672 10.1659 4.02672L10.1665 4.02605Z" fill="#E56D5C"/>
<path d="M10.1244 3.94336L10.0514 4.03628C10.0514 4.03628 10.1565 4.02692 10.1659 4.02358C10.1753 4.02024 10.1244 3.94336 10.1244 3.94336Z" fill="#DE4E6B"/>
<path d="M9.91284 4.04358C9.91284 4.04358 9.56602 4.07433 9.36784 4.00614C9.15359 3.93193 9.12012 3.75879 9.12012 3.75879C9.12012 3.75879 9.17368 3.93327 9.39931 3.99544C9.59682 4.05026 9.91284 4.04291 9.91284 4.04291V4.04358Z" fill="#DE4E6B"/>
<path d="M9.42274 3.8641C9.4455 3.87747 9.35578 3.89954 9.28347 3.88617C9.21853 3.87413 9.18171 3.84137 9.18572 3.83335C9.19041 3.82533 9.33235 3.81062 9.42274 3.86344V3.8641Z" fill="white"/>
<path d="M9.47767 3.87184C9.50177 3.8578 9.53391 3.86515 9.53793 3.87852C9.54195 3.89189 9.51316 3.91529 9.49776 3.91262C9.48169 3.90994 9.46428 3.87919 9.47767 3.87184Z" fill="white"/>
<g style="mix-blend-mode:multiply" opacity="0.6">
<path d="M10.1506 4.00038C10.1506 4.00038 9.6933 3.5645 9.12085 3.75971C9.12085 3.75971 9.27953 3.59191 9.62635 3.61799C9.97383 3.64406 10.1506 4.00038 10.1506 4.00038Z" fill="#B23594"/>
</g>
<path d="M10.1666 4.02588C10.1666 4.02588 9.9463 3.71302 9.62091 3.68293C9.29552 3.65218 9.12077 3.75981 9.12077 3.75981L9.09131 3.71034C9.09131 3.71034 9.3772 3.57062 9.66175 3.64082C10.0032 3.72572 10.1666 4.02588 10.1666 4.02588Z" fill="#290B39"/>
<path d="M10.1666 4.02583C10.1666 4.02583 10.0146 3.51776 9.78699 3.36133C9.78699 3.36133 10.0481 3.73904 10.1666 4.02583Z" fill="#DE4E6B"/>
<path d="M10.1826 4.97345C10.1826 4.97345 10.034 4.43262 10.7356 4.43262C11.4373 4.43262 11.3195 4.96275 11.3195 4.96275L11.288 4.97345C11.288 4.97345 11.0965 5.09311 10.735 5.09311C10.3734 5.09311 10.1819 4.97345 10.1819 4.97345H10.1826Z" fill="url(#paint35_linear_1326_8389)"/>
<g style="mix-blend-mode:multiply" opacity="0.6">
<path d="M10.7284 5.0116C10.3615 5.0116 10.1827 4.97282 10.1827 4.97282C10.3702 4.96748 10.5215 5.09115 10.7358 5.09249C10.95 5.09115 11.1007 4.96748 11.2888 4.97282C11.2888 4.97282 11.0732 5.0116 10.7291 5.0116H10.7284Z" fill="#B23594"/>
</g>
<path style="mix-blend-mode:multiply" opacity="0.5" d="M11.0209 5.03101C11.0209 5.03101 11.1153 4.93073 11.288 4.97351L11.0209 5.03101Z" fill="url(#paint36_linear_1326_8389)"/>
<path style="mix-blend-mode:multiply" opacity="0.5" d="M10.1827 4.97342C10.1827 4.97342 10.2932 4.91927 10.4405 5.02823L10.1827 4.97342Z" fill="url(#paint37_linear_1326_8389)"/>
<g style="mix-blend-mode:multiply" opacity="0.6">
<path d="M10.253 4.59277C10.253 4.59277 10.0923 4.73182 10.1693 4.96313C10.1693 4.96313 10.176 4.77595 10.253 4.59277Z" fill="#B23594"/>
</g>
<g style="mix-blend-mode:multiply" opacity="0.6">
<path d="M11.2297 4.60156C11.2297 4.60156 11.3964 4.73125 11.3188 4.96256C11.3188 4.96256 11.3061 4.78474 11.2297 4.60156Z" fill="#B23594"/>
</g>
<g style="mix-blend-mode:multiply" opacity="0.6">
<path d="M10.1827 4.97392C10.1827 4.97392 10.484 5.23397 10.7358 5.23397C10.9875 5.23397 11.3196 4.96323 11.3196 4.96323C11.2627 4.62161 11.0571 5.0127 10.7291 5.0127C10.5061 5.0127 10.237 4.71253 10.1834 4.97392H10.1827Z" fill="#B23594"/>
</g>
<path d="M10.9733 4.83935C10.9713 4.8086 11.0095 4.77384 11.0396 4.77651C11.0698 4.77919 11.0544 4.84671 11.0396 4.85941C11.0249 4.87211 10.9733 4.83868 10.9733 4.83868V4.83935Z" fill="#FCCBB9"/>
<path style="mix-blend-mode:multiply" opacity="0.6" d="M10.2529 4.59289C10.2529 4.59289 10.3045 4.67311 10.3587 4.93116C10.3587 4.93116 10.4237 4.75868 10.2904 4.56348L10.2529 4.59289Z" fill="url(#paint38_linear_1326_8389)"/>
<path style="mix-blend-mode:multiply" opacity="0.6" d="M11.2203 4.59912C11.2203 4.59912 11.1835 4.67199 11.13 4.93003C11.13 4.93003 11.0503 4.75087 11.1835 4.55566L11.2203 4.59912Z" fill="url(#paint39_linear_1326_8389)"/>
<path style="mix-blend-mode:multiply" d="M9.78076 5.69043C9.78076 5.69043 10.1805 6.39571 10.7241 6.39571C11.2156 6.39571 11.6327 5.70447 11.6327 5.70447C11.6327 5.70447 11.2484 6.09288 10.8862 6.13031C10.5239 6.16775 9.78076 5.69043 9.78076 5.69043Z" fill="url(#paint40_linear_1326_8389)"/>
<path d="M9.59741 5.41211C9.59741 5.41211 9.98507 6.06726 10.2549 6.1575C10.5247 6.24709 11.0195 6.19494 11.1782 6.1575C11.3375 6.12007 11.8142 5.4696 11.8142 5.4696C11.8142 5.4696 11.2953 5.94559 10.7062 5.94559C10.117 5.94559 9.59808 5.41278 9.59808 5.41278L9.59741 5.41211Z" fill="#EF7172"/>
<path d="M9.59741 5.41211C9.59741 5.41211 9.93084 5.60598 10.67 5.60598C11.4092 5.60598 11.8839 5.41211 11.8839 5.41211C11.8839 5.41211 11.2505 5.96898 10.67 5.96898C10.1812 5.96898 9.59741 5.41211 9.59741 5.41211Z" fill="#D35057"/>
<path d="M11.7886 5.35271C11.7886 5.35271 11.9045 5.44831 11.9547 5.52318C11.9547 5.52318 11.9714 5.39015 11.9205 5.32263C11.8696 5.25511 11.788 5.35271 11.788 5.35271H11.7886Z" fill="#DE6B7D"/>
<path d="M9.68174 5.35271C9.68174 5.35271 9.56591 5.44831 9.5157 5.52318C9.5157 5.52318 9.49896 5.39015 9.54984 5.32263C9.60073 5.25511 9.68241 5.35271 9.68241 5.35271H9.68174Z" fill="#DE6B7D"/>
<path d="M9.80688 5.54282C9.80688 5.54282 10.2247 5.92923 10.6692 5.9446C11.2203 5.96332 11.6561 5.52344 11.6561 5.52344C11.6561 5.52344 11.0797 5.66316 10.6552 5.66316C10.2307 5.66316 9.80688 5.54349 9.80688 5.54349V5.54282Z" fill="white"/>
<path d="M11.4613 5.56551L11.45 5.69521L11.7124 5.5L11.4613 5.56551Z" fill="#4F1C3E"/>
<path d="M9.98696 5.58603L10.0097 5.70502L9.72986 5.50781L9.98696 5.58603Z" fill="#4F1C3E"/>
<g style="mix-blend-mode:soft-light">
<path d="M10.9191 6.02064L10.986 6.1851C10.986 6.1851 11.1293 6.17641 11.215 6.14031C11.3027 6.10421 11.5056 5.87558 11.5745 5.7753L11.5016 5.75391C11.5016 5.75391 11.2625 5.93842 10.9191 6.02064Z" fill="#FCCBB9"/>
</g>
<g style="mix-blend-mode:multiply" opacity="0.6">
<path d="M9.99022 5.60621C9.99022 5.60621 10.2955 5.69512 10.6691 5.69512C11.0427 5.69512 11.4592 5.58214 11.4592 5.58214L11.4605 5.56543C11.4605 5.56543 11.0092 5.66303 10.6551 5.66303C10.3009 5.66303 9.98621 5.58615 9.98621 5.58615L9.99022 5.60621Z" fill="#8D307F"/>
</g>
</g>
<defs>
<linearGradient id="paint0_linear_1326_8389" x1="10.5897" y1="9.66531" x2="10.5897" y2="6.31671" gradientUnits="userSpaceOnUse">
<stop stop-color="#F9B19E"/>
<stop offset="0.21" stop-color="#F69B8F"/>
<stop offset="0.47" stop-color="#F48781"/>
<stop offset="0.74" stop-color="#F37B79"/>
<stop offset="1" stop-color="#F37777"/>
</linearGradient>
<linearGradient id="paint1_linear_1326_8389" x1="11.4453" y1="8.37561" x2="11.4453" y2="6.67023" gradientUnits="userSpaceOnUse">
<stop stop-color="#FEEADB"/>
<stop offset="0.99" stop-color="#B17EB7"/>
</linearGradient>
<linearGradient id="paint2_linear_1326_8389" x1="13.1841" y1="5.23347" x2="13.1841" y2="3.48797" gradientUnits="userSpaceOnUse">
<stop stop-color="#F4837E"/>
<stop offset="0.01" stop-color="#F3827D"/>
<stop offset="0.34" stop-color="#F27369"/>
<stop offset="0.67" stop-color="#F26A5D"/>
<stop offset="1" stop-color="#F26859"/>
</linearGradient>
<linearGradient id="paint3_linear_1326_8389" x1="13.2184" y1="4.70205" x2="13.2184" y2="3.79688" gradientUnits="userSpaceOnUse">
<stop stop-color="#FEEADB"/>
<stop offset="0.99" stop-color="#B17EB7"/>
</linearGradient>
<linearGradient id="paint4_linear_1326_8389" x1="13.0383" y1="4.68015" x2="13.0383" y2="3.97821" gradientUnits="userSpaceOnUse">
<stop stop-color="#FEEADB"/>
<stop offset="0.99" stop-color="#B17EB7"/>
</linearGradient>
<linearGradient id="paint5_linear_1326_8389" x1="8.07826" y1="5.23347" x2="8.07826" y2="3.48797" gradientUnits="userSpaceOnUse">
<stop stop-color="#F4837E"/>
<stop offset="0.01" stop-color="#F3827D"/>
<stop offset="0.34" stop-color="#F27369"/>
<stop offset="0.67" stop-color="#F26A5D"/>
<stop offset="1" stop-color="#F26859"/>
</linearGradient>
<linearGradient id="paint6_linear_1326_8389" x1="8.04334" y1="4.70205" x2="8.04334" y2="3.79688" gradientUnits="userSpaceOnUse">
<stop stop-color="#FEEADB"/>
<stop offset="0.99" stop-color="#B17EB7"/>
</linearGradient>
<linearGradient id="paint7_linear_1326_8389" x1="8.22425" y1="4.68015" x2="8.22425" y2="3.97821" gradientUnits="userSpaceOnUse">
<stop stop-color="#FEEADB"/>
<stop offset="0.99" stop-color="#B17EB7"/>
</linearGradient>
<linearGradient id="paint8_linear_1326_8389" x1="10.6465" y1="7.19982" x2="10.6465" y2="0.800781" gradientUnits="userSpaceOnUse">
<stop stop-color="#F3797E"/>
<stop offset="0.11" stop-color="#F37C7A"/>
<stop offset="0.55" stop-color="#F5886E"/>
<stop offset="1" stop-color="#F68D6A"/>
</linearGradient>
<linearGradient id="paint9_linear_1326_8389" x1="10.1657" y1="0.631843" x2="11.867" y2="0.631843" gradientUnits="userSpaceOnUse">
<stop stop-color="#33122B"/>
<stop offset="1" stop-color="#441B3E"/>
</linearGradient>
<linearGradient id="paint10_linear_1326_8389" x1="10.6832" y1="3.83025" x2="10.6832" y2="0.000321877" gradientUnits="userSpaceOnUse">
<stop stop-color="#360F3A"/>
<stop offset="1" stop-color="#4C132E"/>
</linearGradient>
<linearGradient id="paint11_linear_1326_8389" x1="10.6162" y1="0.901618" x2="12.278" y2="0.901618" gradientUnits="userSpaceOnUse">
<stop stop-color="#33122B"/>
<stop offset="1" stop-color="#441B3E"/>
</linearGradient>
<linearGradient id="paint12_linear_1326_8389" x1="10.3102" y1="0.715515" x2="11.2985" y2="0.715515" gradientUnits="userSpaceOnUse">
<stop stop-color="#33122B"/>
<stop offset="1" stop-color="#441B3E"/>
</linearGradient>
<linearGradient id="paint13_linear_1326_8389" x1="10.0083" y1="0.724874" x2="10.6162" y2="0.724874" gradientUnits="userSpaceOnUse">
<stop stop-color="#33122B"/>
<stop offset="1" stop-color="#441B3E"/>
</linearGradient>
<linearGradient id="paint14_linear_1326_8389" x1="8.20203" y1="1.8104" x2="8.55487" y2="1.8104" gradientUnits="userSpaceOnUse">
<stop stop-color="#33122B"/>
<stop offset="1" stop-color="#441B3E"/>
</linearGradient>
<linearGradient id="paint15_linear_1326_8389" x1="8.77771" y1="1.23449" x2="9.22429" y2="1.23449" gradientUnits="userSpaceOnUse">
<stop stop-color="#33122B"/>
<stop offset="1" stop-color="#441B3E"/>
</linearGradient>
<linearGradient id="paint16_linear_1326_8389" x1="11.2349" y1="1.10484" x2="12.6657" y2="1.10484" gradientUnits="userSpaceOnUse">
<stop stop-color="#33122B"/>
<stop offset="1" stop-color="#441B3E"/>
</linearGradient>
<linearGradient id="paint17_linear_1326_8389" x1="12.4012" y1="1.66835" x2="13.0534" y2="1.66835" gradientUnits="userSpaceOnUse">
<stop stop-color="#33122B"/>
<stop offset="1" stop-color="#441B3E"/>
</linearGradient>
<linearGradient id="paint18_linear_1326_8389" x1="8.49123" y1="1.41113" x2="8.7818" y2="1.41113" gradientUnits="userSpaceOnUse">
<stop stop-color="#33122B"/>
<stop offset="1" stop-color="#441B3E"/>
</linearGradient>
<linearGradient id="paint19_linear_1326_8389" x1="10.3353" y1="27.7292" x2="15.8073" y2="27.7292" gradientUnits="userSpaceOnUse">
<stop stop-color="#E9A792"/>
<stop offset="0.08" stop-color="#ECA78E"/>
<stop offset="0.51" stop-color="#F9AC81"/>
<stop offset="0.59" stop-color="#F8A57D"/>
<stop offset="0.79" stop-color="#F69977"/>
<stop offset="1" stop-color="#F69575"/>
</linearGradient>
<linearGradient id="paint20_linear_1326_8389" x1="-0.000103173" y1="19.8138" x2="1.36105" y2="19.8138" gradientUnits="userSpaceOnUse">
<stop stop-color="#E9A792"/>
<stop offset="0.08" stop-color="#ECA78E"/>
<stop offset="0.51" stop-color="#F9AC81"/>
<stop offset="0.59" stop-color="#F8A57D"/>
<stop offset="0.79" stop-color="#F69977"/>
<stop offset="1" stop-color="#F69575"/>
</linearGradient>
<linearGradient id="paint21_linear_1326_8389" x1="0.35938" y1="20.573" x2="1.72053" y2="20.573" gradientUnits="userSpaceOnUse">
<stop stop-color="#E9A792"/>
<stop offset="0.08" stop-color="#ECA78E"/>
<stop offset="0.51" stop-color="#F9AC81"/>
<stop offset="0.59" stop-color="#F8A57D"/>
<stop offset="0.79" stop-color="#F69977"/>
<stop offset="1" stop-color="#F69575"/>
</linearGradient>
<linearGradient id="paint22_linear_1326_8389" x1="0.526642" y1="21.2642" x2="1.88847" y2="21.2642" gradientUnits="userSpaceOnUse">
<stop stop-color="#E9A792"/>
<stop offset="0.08" stop-color="#ECA78E"/>
<stop offset="0.51" stop-color="#F9AC81"/>
<stop offset="0.59" stop-color="#F8A57D"/>
<stop offset="0.79" stop-color="#F69977"/>
<stop offset="1" stop-color="#F69575"/>
</linearGradient>
<linearGradient id="paint23_linear_1326_8389" x1="0.870842" y1="22.0013" x2="2.232" y2="22.0013" gradientUnits="userSpaceOnUse">
<stop stop-color="#E9A792"/>
<stop offset="0.08" stop-color="#ECA78E"/>
<stop offset="0.51" stop-color="#F9AC81"/>
<stop offset="0.59" stop-color="#F8A57D"/>
<stop offset="0.79" stop-color="#F69977"/>
<stop offset="1" stop-color="#F69575"/>
</linearGradient>
<linearGradient id="paint24_linear_1326_8389" x1="-0.000228957" y1="20.7934" x2="1.29464" y2="20.7934" gradientUnits="userSpaceOnUse">
<stop stop-color="#E9A792"/>
<stop offset="0.08" stop-color="#ECA78E"/>
<stop offset="0.51" stop-color="#F9AC81"/>
<stop offset="0.59" stop-color="#F8A57D"/>
<stop offset="0.79" stop-color="#F69977"/>
<stop offset="1" stop-color="#F69575"/>
</linearGradient>
<linearGradient id="paint25_linear_1326_8389" x1="11.1937" y1="3.07814" x2="12.7845" y2="3.07814" gradientUnits="userSpaceOnUse">
<stop stop-color="#360F3A"/>
<stop offset="1" stop-color="#4C132E"/>
</linearGradient>
<linearGradient id="paint26_linear_1326_8389" x1="10.3166" y1="3.07814" x2="8.72583" y2="3.07814" gradientUnits="userSpaceOnUse">
<stop stop-color="#360F3A"/>
<stop offset="1" stop-color="#4C132E"/>
</linearGradient>
<linearGradient id="paint27_linear_1326_8389" x1="11.912" y1="4.03776" x2="11.8858" y2="3.61004" gradientUnits="userSpaceOnUse">
<stop stop-color="#EDE1EF"/>
<stop offset="1" stop-color="#C0C7E6"/>
</linearGradient>
<linearGradient id="paint28_linear_1326_8389" x1="11.8619" y1="4.04745" x2="11.9013" y2="3.5342" gradientUnits="userSpaceOnUse">
<stop stop-color="#4C132E"/>
<stop offset="1" stop-color="#360F3A"/>
</linearGradient>
<linearGradient id="paint29_linear_1326_8389" x1="11.8632" y1="4.0321" x2="11.9002" y2="3.5495" gradientUnits="userSpaceOnUse">
<stop stop-color="#4C132E"/>
<stop offset="1" stop-color="#360F3A"/>
</linearGradient>
<linearGradient id="paint30_linear_1326_8389" x1="11.8697" y1="3.94751" x2="11.8937" y2="3.63422" gradientUnits="userSpaceOnUse">
<stop stop-color="#C9A8CF"/>
<stop offset="0.99" stop-color="#8361AA"/>
</linearGradient>
<linearGradient id="paint31_linear_1326_8389" x1="9.62594" y1="4.0368" x2="9.65213" y2="3.60908" gradientUnits="userSpaceOnUse">
<stop stop-color="#EDE1EF"/>
<stop offset="1" stop-color="#C0C7E6"/>
</linearGradient>
<linearGradient id="paint32_linear_1326_8389" x1="9.67539" y1="4.04661" x2="9.6361" y2="3.53402" gradientUnits="userSpaceOnUse">
<stop stop-color="#4C132E"/>
<stop offset="1" stop-color="#360F3A"/>
</linearGradient>
<linearGradient id="paint33_linear_1326_8389" x1="9.67411" y1="4.03127" x2="9.63712" y2="3.54867" gradientUnits="userSpaceOnUse">
<stop stop-color="#4C132E"/>
<stop offset="1" stop-color="#360F3A"/>
</linearGradient>
<linearGradient id="paint34_linear_1326_8389" x1="9.66765" y1="3.94667" x2="9.64364" y2="3.63338" gradientUnits="userSpaceOnUse">
<stop stop-color="#C9A8CF"/>
<stop offset="0.99" stop-color="#8361AA"/>
</linearGradient>
<linearGradient id="paint35_linear_1326_8389" x1="10.7477" y1="5.09311" x2="10.7477" y2="4.43195" gradientUnits="userSpaceOnUse">
<stop stop-color="#F3797E"/>
<stop offset="0.11" stop-color="#F37C7A"/>
<stop offset="0.55" stop-color="#F5886E"/>
<stop offset="1" stop-color="#F68D6A"/>
</linearGradient>
<linearGradient id="paint36_linear_1326_8389" x1="11.0209" y1="4.99691" x2="11.288" y2="4.99691" gradientUnits="userSpaceOnUse">
<stop offset="0.02" stop-color="#7A55A3"/>
<stop offset="0.99" stop-color="#BD89BD"/>
</linearGradient>
<linearGradient id="paint37_linear_1326_8389" x1="10.1827" y1="4.99347" x2="10.4405" y2="4.99347" gradientUnits="userSpaceOnUse">
<stop offset="0.02" stop-color="#7A55A3"/>
<stop offset="0.99" stop-color="#BD89BD"/>
</linearGradient>
<linearGradient id="paint38_linear_1326_8389" x1="10.3139" y1="4.93116" x2="10.3139" y2="4.56348" gradientUnits="userSpaceOnUse">
<stop stop-color="#FEEADB"/>
<stop offset="0.99" stop-color="#B17EB7"/>
</linearGradient>
<linearGradient id="paint39_linear_1326_8389" x1="11.1634" y1="4.93003" x2="11.1634" y2="4.55566" gradientUnits="userSpaceOnUse">
<stop stop-color="#FEEADB"/>
<stop offset="0.99" stop-color="#B17EB7"/>
</linearGradient>
<linearGradient id="paint40_linear_1326_8389" x1="10.7067" y1="6.39571" x2="10.7067" y2="5.69043" gradientUnits="userSpaceOnUse">
<stop stop-color="#F8C0D8"/>
<stop offset="0.99" stop-color="#B17EB7"/>
</linearGradient>
</defs>
</svg>
