<svg width="128" height="89" viewBox="0 0 128 89" fill="none" xmlns="http://www.w3.org/2000/svg">
<g opacity="0.8" clip-path="url(#clip0_1328_10384)">
<path d="M44.2488 45.7127L65.8756 51.92M58.1572 38.0005L58.2005 38.0129M51.9586 59.6298L52.0018 59.6422M53.3202 -5.93969C62.6091 11.1694 92.5145 -11.4179 102.318 2.70691C107.959 10.8334 101.816 23.4431 89.7698 29.349" stroke="white" stroke-width="3" stroke-linecap="round" stroke-linejoin="round"/>
<path d="M102.357 21.6225C106.387 23.6171 106.615 26.4261 105.863 33.8272C105.189 40.4972 103.325 48.1974 102.395 51.4371C101.921 52.6003 101.085 53.58 100.011 54.2312C88.5875 60.4796 66.1691 72.0369 54.8932 77.7378C50.5529 79.6803 45.2573 78.2306 42.3233 74.4578C36.5789 65.8287 31.3764 56.4374 26.113 47.7965C24.244 43.4773 25.7384 38.5317 29.8147 36.1389C41.8859 29.6081 63.4728 18.697 75.6063 12.7319C76.7943 12.2302 78.1167 12.076 79.4193 12.3329C81.5734 12.9511 85.202 14.2876 88.7566 15.5231" stroke="white" stroke-width="3" stroke-linecap="round" stroke-linejoin="round"/>
</g>
<defs>
<clipPath id="clip0_1328_10384">
<rect width="108" height="108" fill="white" transform="translate(29.7949 -30) rotate(16.0144)"/>
</clipPath>
</defs>
</svg>
